    <svg id="provinces" data-name="provinces" xmlns="http://www.w3.org/2000/svg" viewBox="0 0 437.33 509.33">
      <defs>
        <style>.province {
        fill:#f5f5f5;
        fill-rule:evenodd;
        stroke:#fff;
        stroke-miterlimit:10;
        stroke-width:2px;
        }
        </style>
      </defs>
      <title>Artboard 1</title>
      <path id="Zeeland" class="province"
        d="M96.39,398.28l-.7.65-1.89,2.84L90,401.45l-.71-.29-1.1-.9-2.66-.36-1.23-.42-1-1.07-1.24-2.74-.73-1.1-1.59-1-2.57-1-2.37-.11-1,1.56-.59,3.51-1.48,1.74L61,403.9l-2.66.39-4.19-1.2H49.67l-2.35-1-3.53-3.13-10.73-3.07-7-4.52-1.72.2-1.63,1.35L5,398.66H5l1,6.77-.45,4.36-.08,4.09,1.56,4.41,2.67,2.93.79.36,2.55,1.18,3.52.41,5.21-.82L22,420.7l-.28-2.22.2-2,1.21-1.24,1.62-.4,1.76-.1,4.38-1,2.72-.16,2.81.46,13.46,4.47,2.08,1.37.57,2.3-.18,1.95.18,1.83,1.64,1.95,1.37.6,13-.16,2.47-.79,5-3.94,13.64-6.87,5.46-4.29,4.33-5.92.61-1.75.82-4.09.06-.74-2.41-1.41Zm-2.51-40.63L84,357.15l-2.92.82-5.84,2.78L84,368.93l2.65,1.58,1.65.27,3.48-.42,1.69.14,4.55,2,3.94.71,1.34-3.49.14-.71,0-2.11-.77-2.24-.36-.52-2.89-3.3-.07-.17h0l-2.58-2.19Zm13.63,42.06-.14-1.31-.41-1.12-1-.88-.43-3.4-.07-2,.2-.54.12-.59.39-.71-.49-2.58,0-.07h0l-1.22.33-3.58-.18-2.18.71-2.16-1.12-5.73.8-2.63-.77-1.63-2.21L84.32,378l-1.45-2.76-4.54-4L73,369.09,62.44,368v-1.09l.73-.68L65,364.94l1.16-.47-1-2.57-1.58-2.17-1.77-1.65-1.65-.95-2.45-.35L28.18,360l-11.32,7-1.16,1.61.44,2.87,1.2,1.9L21,376.53l1.33,2,1.47,2.81,1.68,2.49,2,1.08,6.23,1.42,2.48-.11,4.56-1.71,1.73.19,4.3,4.13,6.64,3.28,3,3.18,1.18.54,1.18-.21,1.42-.9,4-.43,1.69-.9L67,391.62l3.27-6.18,1.53-1,4.6.47,1.8.74L84.3,391l2.22,1.36,2.28.76,9.9.29,2.42-.73,1.29-1.68,1.12.79.21,1.37-.05,1.81.3,2.15.89,2.06.44.55,2.21.08ZM89.57,353.62l.88,1.06,1.1.76,1.17.45,4.34.19,1.24-3.6,0-.13-.09,0-2.48-1-2.35-1.7-2.47-1-1.86,1.59-.3.39,0,0,.23,1.34Zm-43.75-8.16,4.94-.28.65-.61,2.71-3.24,1.47.11.92.76.69,1,.73.71,4.32,1.73L64,346.95l.7,2.28,1.06,2.39,2.37,1.68,4.09,1.53,2,.1,8.46-1.65,2-.76,1.81-1.26,1.14-1.79-.22-2.85-2.09-1.48-4.6-1.28-1.1-.93-.7-1-.54-.93L74.16,336l-1.79-1.38-2.44-.54-10.55-.3L57.93,333l-1.8-.17-.46.17-9.27,1.34-4,2.6-.3,5.73,1.47,2.14Z" />
      <polygon id="Utrecht" class="province"
        points="254.72 292.7 254.52 291.99 254.06 291.18 253.31 289.58 251.04 287.13 249.65 284.64 248.68 279.23 248.83 274.95 248.61 273.91 248.51 272.94 247.57 269.32 245.76 269.75 246.24 271.07 246.17 271.78 246.01 272.48 245.55 273.35 245.13 273.85 244.68 274.14 244.24 274.18 243.86 274.32 242.71 275.22 241.71 275.58 238.64 274.05 238.41 273.74 238.24 273.35 239.08 272.63 239.61 272.01 239.93 271.42 240.58 269.5 241.44 267.69 242.63 267.78 242.66 267.58 242.66 267.24 242.56 266.61 242.54 265.41 243.09 264.33 243.11 263.71 242.82 263.3 241.96 262.34 241.08 261.77 240.63 261.35 239.66 259.9 238.89 259.3 236.62 258.78 234 257.92 233.34 256.7 233.43 256.35 233.63 256.11 234.35 255.52 234.72 254.78 234.94 253.02 230.96 249.78 230.35 248.74 230.6 246.78 231 243.72 231.33 241.98 226.55 239.66 224.13 237.9 223.22 238.06 217.06 238.07 216.19 238.41 215.69 238.69 213.7 242.05 211.46 247.61 211.08 249.71 210.47 251.04 209.7 252.92 208.9 254.55 206.73 256.05 200.61 255.72 196.46 256.49 194.5 257.4 191.61 258.01 191.05 254.22 190.4 251.49 191.23 247.85 193.06 245.6 192.53 244.5 192.24 244.1 192.02 243.75 191.76 243.43 191.39 243.09 191.08 242.92 190.84 242.66 190.67 242.27 190.55 241.6 190.38 241.06 190 240.26 190.53 239.42 193.9 238.09 189.44 237.67 187.66 238.46 187.15 237.67 186.62 237.25 185.95 236.98 185.15 236.97 182.42 238.48 180.32 238.85 179.29 238.77 178.78 239.07 178.42 239.39 176.89 242.33 172.51 242.94 170.11 244.13 168.44 245.85 166.23 246.99 161.1 248.5 162.53 251.02 163.08 251.79 163.75 252.46 166.18 253.42 171.54 258.03 170.55 258.84 170.99 260.82 171.69 262.79 171.86 263.39 171.85 263.83 171.61 264.13 171.15 264.26 169.33 263.39 168.79 263.26 168.41 263.09 168.05 262.82 167.46 262.95 166.93 263.12 164.3 265.92 163.63 266.66 165.15 267.99 166.82 268.61 168.22 275.26 173.19 275.3 172.4 276.51 168.07 278.66 164.57 283.99 165.06 285.12 170.1 284.44 170.59 286.59 169.2 287.46 168.39 287.84 167.68 288.07 167.32 288.6 168.31 290.3 171.83 294.8 174.25 298.52 174.99 297.39 177.48 297.54 178.59 297.07 181.68 293.89 185.22 291.85 185.44 291.57 190 292.61 191.11 292.12 192.71 290.08 193.69 289.32 196.21 288.63 197.18 287.88 198.2 287.36 199.72 287.69 201.06 288.74 202.58 291.38 203.62 292.67 205.69 293.78 206.75 293.94 208.38 294.17 211.03 293.66 213.01 292.12 214.65 291.77 220.84 295.21 223.12 294.63 226.35 292.13 228.79 291.57 231.68 292.62 232.93 292.67 233.95 292.19 236.13 290.62 237.51 290.24 242.25 291.25 250.74 296.36 254.43 297.26 254.82 296.42 254.88 293.62 254.72 292.7" />
      <polygon id="South_Holland" data-name="South Holland" class="province"
        points="205.69 293.78 203.62 292.67 202.58 291.38 201.06 288.74 199.72 287.69 198.2 287.36 197.18 287.88 196.21 288.63 193.69 289.32 192.71 290.08 191.11 292.12 190 292.61 185.44 291.57 185.22 291.85 181.68 293.89 178.59 297.07 177.48 297.54 174.99 297.39 174.25 298.52 171.83 294.8 168.31 290.3 167.32 288.6 167.68 288.07 168.39 287.84 169.2 287.46 170.59 286.59 170.1 284.44 165.06 285.12 164.57 283.99 168.07 278.66 172.4 276.51 173.19 275.3 168.22 275.26 166.82 268.61 165.15 267.99 163.63 266.66 164.3 265.92 166.93 263.12 167.46 262.95 168.05 262.82 168.41 263.09 168.79 263.26 169.33 263.39 171.15 264.26 171.61 264.13 171.85 263.83 171.86 263.39 171.69 262.79 170.99 260.82 170.55 258.84 171.54 258.03 166.18 253.42 163.75 252.46 163.08 251.79 162.53 251.02 161.1 248.5 157.62 250.81 156.45 250.24 156.08 249.39 155.6 246.75 155.33 246.48 154.76 246.1 150.27 247.55 147.93 248.67 143.23 249.93 140.52 250 139.77 249.86 139.24 249.6 138.16 248.55 136.91 248.65 136.76 247.32 138.14 244.97 138.68 242.55 138.78 240.87 138.92 240.09 139.07 239.66 143.69 231.95 141.22 231.36 138.93 232.55 136.97 232.12 136.33 231.87 131.51 229.69 131.5 229.68 121.37 248.09 107.91 267.87 92.19 287.04 88.43 289.48 84.17 290.19 79.05 289.04 78.3 290.23 77.68 291.58 78.91 294.57 81 301.57 81.36 304.3 81.12 304.87 80.61 305.57 80.1 306.55 79.86 307.94 80.11 309.04 80.74 309.77 81.49 310.38 84.29 314.25 85.12 315.88 83.78 317.03 82.63 317.54 81.82 317.64 81.36 317.54 78.3 315.88 74.61 315.04 72.47 315.21 71.53 316.49 64.62 318.6 61.42 320.76 62.44 325.7 63.49 325.73 64.27 325.59 64.67 324.87 66.82 324.26 69.66 324.27 72.46 323.4 74.53 321.84 77.65 323.99 80.31 326.41 82.17 330.09 82.87 335.98 84.45 338.3 92.11 340.65 94.89 342.64 96.05 343.85 92.31 344.15 90.41 344.95 88.97 346.52 88.64 348.02 88.67 350.05 88.79 350.73 88.81 350.71 89.1 350.32 90.96 348.73 93.42 349.69 95.78 351.39 98.26 352.37 98.35 352.34 102.88 350.89 107.42 350.51 113.31 348.98 117.61 346.03 120.95 339.88 132.34 342.19 136.56 342.06 140.38 340.91 144.92 338.73 147.46 337.96 150.94 337.92 156.45 331.26 158.03 328.16 160.43 325.56 163.58 323.14 169.65 323.05 172.38 322.18 176.64 318.31 179.47 318.26 185.07 319.39 187.68 319.14 187.54 317.43 187.83 315.99 187.85 315.64 187.15 314.57 190.33 314.38 198.78 310.8 199.93 310.08 200.03 309.69 200.03 309.15 199.82 308.35 199.63 307.36 203.5 300.44 204.01 299.58 206.75 293.94 205.69 293.78" />
      <polygon id="Overijssel" class="province"
        points="408.98 234.36 411.19 229.23 412.12 222.68 410.58 218.05 403.88 207.15 403.18 207.47 402.5 208.68 401.48 209.65 398.72 210.46 395.83 210.65 392.73 210.14 387.04 207.96 378.32 206.73 375.42 205.31 373.25 202.78 372.58 200.09 372.42 196.91 372.03 193.69 370.68 190.86 372.5 190.7 378.61 187.6 375 184.55 374.23 183.39 374.19 181.88 374.69 180.38 374.91 178.76 373.99 176.87 375.89 175.49 375.81 175.44 374.65 174.73 374.38 173.23 374.43 171.9 374.02 171.4 373.39 170.89 365.44 167.24 364.01 167.19 360.8 167.77 355.44 170.57 354.07 172.03 353.83 172.87 354.15 178.25 349.6 176.05 348.93 175.93 348.11 175.93 347.63 176.45 346.72 177.02 346.09 177.1 345.51 176.81 345.08 176.36 344.56 175.53 344.21 175.31 343.96 175.26 343.38 175.78 342.59 176.2 340.03 176.99 339.29 176.98 338.85 176.79 338.73 176.51 337.84 174.1 336.96 172.78 335.04 170.83 333.37 169.46 332.51 168.06 332.1 167.98 326.79 168.04 325.87 167.73 322.47 165.38 320.73 164.72 319.96 164.92 319.33 165.49 318.44 166.06 317.79 166.1 316.92 165.86 316.45 165.48 316.17 165.16 315.41 163.85 314.88 163.42 311.07 153.44 312.14 151.59 315.04 150.18 319.02 146.24 319.51 144.69 318.51 143.12 317.36 141.81 316.52 141.05 310.99 134.39 306.36 136.22 304.24 136.45 302.45 136.95 302.19 137.17 302.07 137.38 301.97 138.16 301.87 138.46 300.3 140.27 295.98 139.95 295.43 139.69 294.42 138.78 293.13 136.87 292.54 136.6 292.25 136.54 291.98 136.88 291.57 137.16 289.35 137.7 288.8 138.03 288.41 138.47 288.14 139.09 287.75 139.79 287.25 140.53 286.71 141.07 283.46 143.02 282.62 143.18 282 143.22 278.89 142.7 278.48 142.5 277.19 141.37 273.09 143.42 281.15 147.83 286.25 152 287.54 153.7 288.31 155 289.88 159.61 290.71 164.26 290.1 165.24 289.66 166.3 288.85 167.05 288.65 167.36 288.96 167.65 289.89 168.1 294.34 169.41 296.49 170.59 298.91 173.53 295.4 175.49 290.08 177.31 289.04 177.38 287.25 177.08 286.63 176.71 285.18 176.81 279.59 179.37 279.48 179.49 279 180.04 279.8 181.43 280.62 184.46 282.18 191.18 282.59 194.49 283.63 194.57 284.79 194.71 286.15 196.79 288.48 201.26 289.18 201.88 290.07 202.11 293.4 201.09 296.92 198.09 300.11 196.4 301.44 196.96 302.19 197.42 302.94 198.61 303.76 200.29 305.71 202.4 306.53 203.1 307.23 204.17 308.21 207.02 309.06 209.23 311.35 212.56 311.57 213.03 311.73 213.58 311.57 215.59 309.95 219.93 306.28 221.16 305.94 221.43 305.71 221.68 306.26 222.92 306.35 223.69 305.32 225.21 304.36 229.16 304.22 230.46 304.51 231.07 305.65 232.69 306.21 233.37 308.46 234.42 310.44 239.58 310.39 241.09 310.2 241.63 310.39 242.22 310.82 242.53 312.05 243.11 312.6 243.55 312.8 244.42 312.39 245.58 312.36 245.76 312.36 246.01 312.51 246.41 312.82 246.87 313.72 247.71 314.1 247.79 314.34 247.76 315.12 246.55 316.17 245.68 316.51 245.54 317.56 245.59 325.27 247.13 332.24 247.01 333.33 246.69 334.97 245.45 338.75 243.91 342.02 244.31 342.68 245.41 342.8 245.66 348.02 253.29 351.25 256.38 353.88 256.09 358.12 256.61 361.21 255.96 361.88 255.99 362.49 256.23 362.87 257.07 362.97 257.83 362.97 258.4 363.45 258.57 363.89 258.65 367.81 257.7 368.68 257.94 369.75 258.41 370.13 258.66 370.42 259.17 370.6 259.89 370.72 261.67 370.69 262.62 369.6 265.31 380.34 267.6 381.59 268.56 381.67 268.62 388.18 267.88 389.56 266.61 392 261.64 394.14 259.4 398.86 257.33 401.06 255.37 403.64 251.17 404.82 249.79 409.71 246.81 410.02 245.88 409.74 245.38 409.1 244.19 408.12 240.35 408.19 237.07 408.98 234.36" />
      <path id="North_Holland" data-name="North Holland" class="province"
        d="M216.33,232.21l-2.21-.28-4.68.55-2.62-.27-2.08-.82-5.51-3.88L197,226.7l-5-.41-1.78-.55-6.78-4.3.56-.82.68-.27.15-.14v-1.38l1.66.27.69.43.82.69v-1.38l1.67,1.24,1-1.94.83-2.77,1.38-1.37,1.23-.41,1.24-1.12,1-1.5.84-1.94-1.79-1-.82-1.52-.69-1.52-1.24-1.12,2.21-1,.82-.13L195.1,201l-.27-.7L197,198l-.82-4.4-3.58-8.15-1.53-5.23-.13-4.56,1.67-3,3.86-.69,2.9,1.1.83.56,1.94,2.08,1.52-.28,1.67-.69,6.76-4.29,1.79-2.06,1.38-4.29,1.67-1.5,3.59-1.81-.41-1.79-.28-2.48-.41-2.22-.69-1-5.65-2.49-1.79-.13-1.52.27-1.24.69-1.1,1.12-1.52,1-1.38-.82-1.25-1.38-1.09-.7-1.52-2.49-.29-11.6-.55-4-5.53-11.19L192,119.6l4.57-1.94,4.68-2.9,6.1-5.42,0-.06v0l-.16-.65-.43-1.78-.22-.57,0-.18h0l-11.19,10L190.94,118l-4.39.58-2.28.85-4.68,4.06-2.5,1.42-4.33.3-4.52-1.34-2.57-3.33,1.65-5.57-.82-1.36-1.09,1.05-6.77-1.05-1.27,1.59-.82,3.75-.44,4.34-.12,3.38-1.07,6-4.65,12.09-1.06,5.68-.3,2.74-2,9-4.67,35.08-2.16,4.62v1.33l-1,5.1-6.66,19.59-1,1.85h0l4.82,2.18.63.25,2,.44,2.29-1.2,2.47.59-4.62,7.71-.15.44-.14.78-.1,1.68-.53,2.42-1.38,2.35.15,1.32,1.25-.09,1.08,1,.53.26.75.14,2.71-.06,4.7-1.26,2.34-1.12,4.49-1.45.56.38.27.27.48,2.64.38.85,1.17.57,3.48-2.31,5.13-1.51,2.22-1.14,1.66-1.72,2.41-1.19,4.37-.61,1.54-2.94.36-.32.51-.31,1,.08,2.1-.37,2.73-1.51h.8l.67.27.53.43.51.79,1.78-.79,4.45.42-3.36,1.33-.53.84.38.8.17.55.12.67.17.39.24.26.31.17.38.34.26.32.22.34.29.4.53,1.1-1.83,2.25-.83,3.64.65,2.73.56,3.79,2.89-.61,2-.91,4.16-.77,6.12.33,2.17-1.5.8-1.63.77-1.88.61-1.33.38-2.1L213.7,242l2-3.36.49-.29.87-.33h6.16l.91-.16Z" />
      <path id="North_Holland-2" data-name="North Holland" class="province"
        d="M160.45,108.73l3.71-1.09,2.47-4.83,5.19-4.28,3.06-4.74,1.43-2.85.77-2.4h-2.26V87.41L176.74,86l0-2.88-1.13-3.25-1.56-2.54.62-.87.08-.87-.25-.94-.45-1.07-3.46-.19-2.76,4.53-2.6,5.49-5.2,4.49-2.73,4.43-2.18,5.41-.68,4.78,2.11,4.63Z" />
      <polygon id="North_Brabant" data-name="North Brabant" class="province"
        points="301.53 362.05 300.18 356.79 299.72 356.02 299.6 355.38 297.43 351.74 296.44 350.74 295.33 350.07 294.78 349.16 295.51 347.45 293.8 345.54 292.33 339.15 290.63 337.78 286.19 337.32 284.43 336.21 283.49 334.04 283.82 331.91 281.63 330.82 270.31 330.26 262.62 324.91 260.5 324.35 259.45 323.58 258.09 320.16 257.46 319.39 252.54 318.29 245.5 319.37 243.9 318.84 241.79 317.4 239.67 318.25 237.51 319.88 235.25 320.71 230.8 320.38 228.61 321.56 227.67 325.01 227.11 327.98 225.69 330.26 223.75 331.89 221.66 332.94 201.51 335.18 200.53 334.84 201.76 331.93 201.77 329.07 197.71 326.31 196.48 326.71 193.81 326.62 189.71 323.47 187.99 321.58 187.76 320.15 187.68 319.14 185.07 319.39 179.47 318.26 176.64 318.31 172.38 322.18 169.65 323.05 163.58 323.14 160.43 325.56 158.03 328.16 156.45 331.26 150.94 337.92 147.46 337.96 144.92 338.73 140.38 340.91 136.56 342.06 132.34 342.19 120.95 339.88 117.61 346.03 113.31 348.98 107.42 350.51 102.88 350.89 98.35 352.34 98.3 352.47 97.06 356.07 97.49 356.09 98.88 357.43 99.39 360.76 99.35 360.71 99.34 360.71 99.35 360.72 99.42 360.88 102.31 364.18 102.67 364.7 103.44 366.93 103.42 369.04 103.28 369.75 101.95 373.24 102.97 373.43 106.05 375.23 108.34 378.08 109.24 381.89 107.75 385.91 105.62 386.49 105.62 386.49 105.62 386.49 105.66 386.56 106.15 389.15 105.76 389.86 105.64 390.45 105.43 390.98 105.5 392.99 105.93 396.39 106.97 397.27 107.38 398.39 107.52 399.7 107.52 399.77 108.51 399.8 112.49 401.97 114.62 402.69 119.75 403.03 121.84 401.91 122.39 398.88 121.72 397.16 119.25 394.21 118.4 392.63 118.48 390.85 119.19 389.47 119.42 388.22 118.09 386.76 123.85 383.39 129.75 381.22 133 380.68 134.39 380.94 135.27 382.41 135.12 385.35 134.19 387.54 133.98 389.26 136.09 390.77 137.54 390.91 140.72 390.33 144.24 391.21 145.94 391.1 147.42 390.54 148.56 389.69 157.07 379.23 160.7 377.36 162.29 377.51 164.29 378.27 166.13 379.49 167.27 380.99 167.51 383.64 166.83 386.17 166.34 388.84 167.14 391.9 162.34 389.65 161.09 389.84 160.47 391.95 162.8 392.96 170.5 393.23 172.53 393.77 176.78 395.73 179.16 395.07 181.94 392.37 184.47 388.93 186.19 386.08 186.96 383.92 187.33 382.28 187.99 381.22 189.69 380.78 189.99 381.2 193.29 383.39 195.45 387.52 195.07 390.45 193.84 393.27 193.45 397.07 194.16 398.78 197.95 402.98 198.53 404.51 199.65 408.38 200.19 409.53 202.09 410.58 206.34 410.21 208.38 410.42 210.31 412.87 210.37 419.12 212.3 419.62 213.01 419.44 216.46 418.58 229.48 419.13 231.78 418.28 236.4 415.02 238.57 413.97 240.95 414.24 243.53 415.88 245.57 418.54 246.35 421.94 246.71 425.93 247.35 426.48 247.38 426.47 249.22 425.74 251.86 424.95 252.81 425.04 253.63 424.68 254.4 423.81 255.01 422.57 256.01 416.67 257.95 413.23 258.7 412.03 261.04 409.01 271.75 405.74 279.58 403.25 282.98 402.38 285.52 400.26 289.52 396.97 286.84 391.26 283.08 386.06 280.58 375.97 278.88 364.86 282.82 365.26 287.03 366.68 288.32 366.7 291.29 366.2 296.69 364.34 297.77 364.63 300.45 366.48 302.16 364.96 302.18 363.54 301.53 362.05" />
      <polygon id="Limburg" class="province"
        points="317.95 394.49 318.1 391.25 318.94 387.5 319.34 384.02 318.8 380.82 318.02 375.05 313.58 369.91 306.25 359.83 305.78 357.66 306.37 355.13 307.65 351.18 300.2 347.9 297.68 344.68 299.16 339.66 298.06 338.54 295.61 336.68 294.34 336.07 291.15 336.14 290.05 335.7 290.14 333.79 290.8 333.15 290.64 333.2 290.29 333.32 287.47 331.41 287.08 331.05 285.11 328.33 284.62 327.64 284.29 327.54 283.76 327.54 282.67 327.76 281.68 328.44 281.63 330.82 283.82 331.91 283.49 334.04 284.43 336.21 286.19 337.32 290.63 337.78 292.33 339.15 293.8 345.54 295.51 347.45 294.78 349.16 295.33 350.07 296.44 350.74 297.43 351.74 299.6 355.38 299.72 356.02 300.18 356.79 301.53 362.05 302.18 363.54 302.16 364.96 300.45 366.48 297.77 364.63 296.69 364.34 291.29 366.2 288.32 366.7 287.03 366.68 282.82 365.26 278.88 364.86 280.58 375.97 283.08 386.06 286.84 391.26 289.52 396.97 285.52 400.26 282.98 402.38 279.58 403.25 271.75 405.74 261.04 409.01 258.7 412.03 257.95 413.23 256.01 416.67 255.01 422.57 254.4 423.81 253.63 424.68 252.81 425.04 251.86 424.95 249.22 425.74 247.38 426.47 247.35 426.48 249.22 428.08 255.46 429.96 256.95 431.01 258 432.23 259.2 433.08 261.09 433.06 265.7 432.11 267.11 432.26 268.9 433.34 271.2 436.51 272.67 437.75 276.05 436.89 277.93 437.04 278.9 439.27 279.18 440.11 277.63 441.64 277.28 443.64 279.78 446.32 278.77 447 277.65 447.45 276.47 447.64 275.26 447.5 275.54 448.77 275.71 449.3 276.01 450.01 275.2 452.4 274.59 453.64 273.76 454.78 272.48 453.68 271.58 454.23 271.02 455.92 270.76 458.24 272.25 460.26 270.51 464.52 266.17 471.45 268.63 470.78 269.69 470.81 270.76 471.45 269.5 473.57 267.6 477.62 266.17 479.76 265.65 480.19 264.38 480.65 263.1 481.16 255.16 490.03 255.4 493.92 257.19 496.57 259.03 497.86 259.67 498.3 262.04 499.44 263.76 499.95 263.57 502 262.43 505.98 264.43 507.13 265.63 507.37 266.78 507.14 267.32 506.32 268.51 504.55 269.49 503.79 270.59 504.21 272.84 506.7 273.97 507.49 283.51 507.25 284.77 507.64 284.77 507.64 285.97 508.02 293.96 508.29 296.18 507.87 296.41 505.61 295.7 504.56 294.61 503.79 293.76 502.34 293.3 500.11 294.97 500.54 296.55 499.06 297.13 496.99 296.89 495.39 296.79 493.89 297.76 492.15 299.27 491.29 301.75 491.5 302.98 490.03 303.65 488.24 303.68 486.86 302.75 483.28 302.96 482.13 303.54 481.19 303.75 480.49 300.16 479.23 297.56 477.61 296.72 476.68 296.44 475.29 296.28 472.78 296.7 471.33 297.37 469.86 297.14 468.95 293.19 469.43 290.3 468.48 288.78 468.27 287.29 468.69 284.43 470.11 282.93 470.41 282.82 466.02 281.12 461 280.5 456.92 283.58 455.29 285.11 456.15 286.41 457.85 287.88 459.19 289.91 458.98 291.26 457.49 293.38 453.04 294.86 451.34 305.04 443.35 311.31 439.95 312.94 437.78 310.63 435.62 313.15 433.56 314.03 433.05 311.5 432.18 306.02 435.95 303.43 434.51 302.65 431.28 302.97 427.37 303.91 423.87 305.04 421.94 307.36 419.11 313 408.69 314.15 407.56 316.95 405.61 318.04 404.06 318.63 401.87 318.98 398.02 319.61 396.48 317.95 394.49" />
      <path id="Groningen" class="province"
        d="M427.57,77l.75-3.15.34-2.86-.11-2.94-.32-5.21H427l-8-2.06-3.34-1.92-.23-3-.54-1.54,0-.79.44-.55.88-.76V51h-.75l-.94,1-1.3.37-1.33-.35L411,51l-2,.64-4.39-2.5L401.15,48l-.76-.85-.55-.86-.53-.4-.21-.46-2.67-1.92-.57-.24-3.71-15.19-1.88-2L388,25.06l-10.88-1.85-26,4L334.77,32l-2.8,2.2-.94.31L330,34.18,328,32.44,326.89,32l-9.67.31h0L316,34.73l-.55,2.22,1.08,4,1.58.69,2.08.6.39.24.43.4.63.92.46.51.38.22.31.09.34,0,.39-.15.62-.42.31-.13.36,0,2,.68.39.61.19,1-.26,2.3-.05,1.79.19.22.29.17.73.28v.19l-.31.37-1.84,1.72-1.5,1.72-.41.83-.55,2.37L322.09,61l-1.37,2.73.22.86.1.77.22.45.19.56.12.52,0,.5-.29.74-4.08,5.46-1.13,2.26-.77,3.94.51,3.93,1,1.31,1.46,1.31,1,.31,4.7.45,1.89.68,4,2.6,1,.54,2.27.73.87-.51,1.77-3.2.47-1.83.44-1.18L338,82l.32-.95.09-.44.73-1.8,1.66-2.1,1.47-1.5,2-1.28,4-3.61L351.93,72l2,.86,1.2-.15L357,75.3l1.79,3.16.34.29.6.22,1.15.95,3.75,5,1.18,2.82.2.28.2.36.6-.2,6.8-2.25,2.94.27,1,.57.63.45,3.86,4.15,4.82,5.32,2.61,2.58,2.08,2,3.83,4,4.25,4.51,5.14,7,5.39,6.74.77.18.14.78-.05.72-2.33,6.1,2.19.76,1.14.93,2,2.48.61,1,0,.07.85-2.38,9-14.23,2.39-6.1,1-5.81.17-6.54-1-13.08-.41-1.6-.53-1-.42-1.16-.08-2.19.27-1.48ZM347.45,7.94l3.93,1.32.27-.7.34-.47.4-.23.49,0-6.06-2.68-1.53.27.21,1.23Zm14.26.94.41-1.23.84-.28.26-.4h-2.48l-1.11,1-.26,1,1.65.84Z" />
      <polygon id="Gelderland" class="province"
        points="385.81 291.68 385.24 290.82 382.4 287.81 375.21 283.78 372.79 283.07 371.04 281.83 370.81 279.11 371.58 277.25 372.57 276.78 373.73 276.69 375.05 276.03 375.93 274.91 376.83 272.63 377.41 271.62 379.28 269.67 381.04 268.69 381.67 268.62 381.59 268.56 380.34 267.6 369.6 265.31 370.69 262.62 370.72 261.67 370.6 259.89 370.42 259.17 370.13 258.66 369.75 258.41 368.68 257.94 367.81 257.7 363.89 258.65 363.45 258.57 362.97 258.4 362.97 257.83 362.87 257.07 362.49 256.23 361.88 255.99 361.21 255.96 358.12 256.61 353.88 256.09 351.25 256.38 348.02 253.29 342.8 245.66 342.68 245.41 342.02 244.31 338.75 243.91 334.97 245.45 333.33 246.69 332.24 247.01 325.27 247.13 317.56 245.59 316.51 245.54 316.17 245.68 315.12 246.55 314.34 247.76 314.1 247.79 313.72 247.71 312.82 246.87 312.51 246.41 312.36 246.01 312.36 245.76 312.39 245.58 312.8 244.42 312.6 243.55 312.05 243.11 310.82 242.53 310.39 242.22 310.2 241.63 310.39 241.09 310.44 239.58 308.46 234.42 306.21 233.37 305.65 232.69 304.51 231.07 304.22 230.46 304.36 229.16 305.32 225.21 306.35 223.69 306.26 222.92 305.71 221.68 305.94 221.43 306.28 221.16 309.95 219.93 311.57 215.59 311.73 213.58 311.57 213.03 311.35 212.56 309.06 209.23 308.21 207.02 307.23 204.17 306.53 203.1 305.71 202.4 303.76 200.29 302.94 198.61 302.19 197.42 301.44 196.96 300.11 196.4 296.92 198.09 293.4 201.09 290.07 202.11 289.18 201.88 288.48 201.26 286.15 196.79 284.79 194.71 283.63 194.57 282.59 194.49 282.59 194.51 282.45 198.09 281.21 202.36 279.14 205.96 274.72 212.31 272.38 214.93 268.79 217.57 265.06 219.51 258.71 221.43 255.39 224.18 250.41 230.27 246.83 238.69 245.59 240.07 236.08 242.42 231.38 242 231.33 241.98 231 243.72 230.6 246.78 230.35 248.74 230.96 249.78 234.94 253.02 234.72 254.78 234.35 255.52 233.63 256.11 233.43 256.35 233.34 256.7 234 257.92 236.62 258.78 238.89 259.3 239.66 259.9 240.63 261.35 241.08 261.77 241.96 262.34 242.82 263.3 243.11 263.71 243.09 264.33 242.54 265.41 242.56 266.61 242.66 267.24 242.66 267.58 242.63 267.78 241.44 267.69 240.58 269.5 239.93 271.42 239.61 272.01 239.08 272.63 238.24 273.35 238.41 273.74 238.64 274.05 241.71 275.58 242.71 275.22 243.86 274.32 244.24 274.18 244.68 274.14 245.13 273.85 245.55 273.35 246.01 272.48 246.17 271.78 246.24 271.07 245.76 269.75 247.57 269.32 248.51 272.94 248.61 273.91 248.83 274.95 248.68 279.23 249.65 284.64 251.04 287.13 253.31 289.58 254.06 291.18 254.52 291.99 254.72 292.7 254.88 293.62 254.82 296.42 254.43 297.26 250.74 296.36 242.25 291.25 237.51 290.24 236.13 290.62 233.95 292.19 232.93 292.67 231.68 292.62 228.79 291.57 226.35 292.13 223.12 294.63 220.84 295.21 214.65 291.77 213.01 292.12 211.03 293.66 208.38 294.17 206.75 293.94 204.01 299.58 203.5 300.44 199.63 307.36 199.82 308.35 200.03 309.15 200.03 309.69 199.93 310.08 198.78 310.8 190.33 314.38 187.15 314.57 187.85 315.64 187.83 315.99 187.54 317.43 187.68 319.14 187.76 320.15 187.99 321.58 189.71 323.47 193.81 326.62 196.48 326.71 197.71 326.31 201.77 329.07 201.76 331.93 200.53 334.84 201.51 335.18 221.66 332.94 223.75 331.89 225.69 330.26 227.11 327.98 227.67 325.01 228.61 321.56 230.8 320.38 235.25 320.71 237.51 319.88 239.67 318.25 241.79 317.4 243.9 318.84 245.5 319.37 252.54 318.29 257.46 319.39 258.09 320.16 259.45 323.58 260.5 324.35 262.62 324.91 270.31 330.26 281.63 330.82 281.68 328.44 282.67 327.76 283.76 327.54 284.29 327.54 284.62 327.64 285.11 328.33 287.08 331.05 287.47 331.41 290.29 333.32 290.64 333.2 290.8 333.15 292.59 331.36 292.79 327.78 291.32 324.34 288.81 322.42 289.19 320.84 291.02 319.54 295.51 318.74 297.64 317.83 299.92 316.14 301.5 315.3 305.98 314.09 309.56 315.04 312.15 315.71 313.92 316.15 312.44 313.82 308.34 309.5 306.97 308.46 310.71 306.43 314.26 308.11 317.8 310.98 321.52 312.51 324.96 311.75 325.87 311.86 326.65 312.62 327.87 314.81 328.37 315.42 332.59 316.06 334.38 317.1 334.71 319.87 338.84 318.72 339.29 316.95 338.39 312.94 345.45 315.03 347.69 315.03 349.51 314.2 354.93 310.04 365.88 306.29 375.63 305.98 378.61 304.37 381.17 301.31 383.68 296.74 384.58 295.75 385.42 295.61 385.98 295.06 386.08 292.88 385.81 291.68" />
      <path id="Friesland" class="province"
        d="M343.16,110.51l-6-8-.41-2-.6-1.82.1-1-.26-1-.26-.53-3.11-1.33-1.72-1-.34-.34.2-2.49-1-.54-4-2.6L324,87.07l-4.7-.45-1-.31L316.88,85l-1-1.31-.51-3.93.77-3.94,1.13-2.26,4.08-5.46.29-.74,0-.5-.12-.52-.19-.56-.22-.45-.1-.77-.22-.86L322.09,61l1.64-2.81.55-2.37.41-.83,1.5-1.72L328,51.51l.31-.37V51l-.73-.28-.29-.17-.19-.22.05-1.79.26-2.3-.19-1-.39-.61-2-.68-.36,0-.31.13-.62.42-.39.15-.34,0-.31-.09-.38-.22-.46-.51-.63-.92-.43-.4-.39-.24-2.08-.6-1.58-.69-1.08-4,.55-2.22,1.18-2.37-12,.38-10.62.52-7.38,3.81-2.53.21-4,2.85-17.63,7.12-3.84,3.33-5.27.89-2.23.79-2,2-1.72,2.5-1.85,2.1-4,1.76-2.38,2.11-3.87,4.52-2.24,5.6-3,12.5-2.26,4.52-2.24,1.47-5.08,1.19-2,1.72-1.62,1.92-11,9.85h0l0,.18.22.57.43,1.78.16.65v0l0,.06,11.3-10,9.25-5.94,1.23,3.86.7,1.68,1.11,1.93,1.1.68.42,2.36-.13,2.34-.7,2.2,1.09,2.07.43,2.9-.55,2.9-2.08,2.47,1.53,2.9L231,123l-1.78,1L228,126.08l-.55.28-.55.55v1.8l.43,1.1.69.55.83.41.69.83,2.34,1.93,3.45,1,6.91.29,1.37.41,2.62,1.65,1.66.41,1.79-.26,1.11-.56,2.33-1.64,1.81-.71h1.67l8,2.34,1.25,1-.33.07.1,0,.29-.06,2.25-.36,1.06.67,2.75,2.92,1.11,2.78,4.1-2.06,1.3,1.14.41.2,3.11.52.61,0,.84-.16,3.26-2,.53-.53.49-.74.39-.7.27-.61.39-.44.55-.34,2.22-.54.41-.28.27-.34.29.06.59.27,1.3,1.92,1,.9.55.26,4.32.32,1.57-1.81.1-.29.1-.79.12-.21.26-.22,1.79-.51,2.12-.23,4.62-1.83,9.33-7.19L324,123l.77-.78,1.19-.94h2.94l2.46.64,3.69,2.51,5.26-3.54.68-.74,3-5,.29-1,.19-.81Z" />
      <path id="Friesland-2" data-name="Friesland" class="province"
        d="M310.73,22.76l0,.59.64,1.16,2.19-2.81,18.92-6.13H334V14.31l-3.07-1-10.9,1-2.9.74L313,16.89l-2.77,2.44,1.16,2.53ZM185.17,54.61,178,61.27l-4.66,6,3.44,1.54,2.81-2.48,2.4-3.59,8.69-8.49,3.21-1.23,1.38-.79h2.94V51l-5.55-.76ZM261.4,28.83l5.29-2.44,2.83-.75h11.32l10.89-2.52-4.49-2.36-26.4,1.1-1.67-.73-1.86,1.57-.65,2.71,1.93,2.75ZM209.59,43.09l15.26-6.72,3.91-1,4.9-2.17,4.58-.38,1.44-.76-.22-.65L239.21,30l-.22-.63,6.41-.26,3.12-1.09,2.56-3.56-16.32,3.16-1.48,1.12-1.8,1.44-14.78,3-2.51-.07-2,1.79-5.89,2.08-1.24,3.17L206.45,43Z" />
      <path id="Flevoland" class="province"
        d="M296.49,170.59l-2.15-1.18-4.44-1.31-.94-.45-.31-.29.2-.31.8-.76.44-1.06.61-1-.84-4.65L288.31,155l-.77-1.3L286.25,152l-5.1-4.16-8.07-4.41L272,140.64l-2.75-2.92-1.06-.67-2.25.36-.29.06-.1,0-3.67.74-3.32,2.36-2.62,3.6-2.21,4.4-1,4.57-.83,7.58.13,7,1.94,3,1.37,1.12,2.62,5,1,1.38,1.78.55,14.5-.82,1.94.41,1.52,1.12.31.53.48-.55.1-.12,5.59-2.56,1.45-.09.62.36,1.79.3,1-.07,5.31-1.82,3.52-2Z" />
      <path id="Flevoland-2" data-name="Flevoland" class="province"
        d="M261.2,181.52l-3-3.17-1.93,1.52-6.35,2.07-1.94,1.39-4.83,4.82-1.09.16L239.8,188l-.82.7-2.64,6.78-1.52,1.1-4.13,1.67-5,4.54-8.26,3.31-4.7,4.7-6.89,3.72-3.18,3-1.93,1.11,1.11,2.75.41,2.63.69,2.08,2.35,1.23,5-.27,1.78.27,7.6,2.9,3.45,1.94,6.61,5.25,2.89,1.22,7.33-.26,3.86-1.53,2.35-3.16.69-4.56-.82-5.54,3-1.66,1.53-.57,1.78-.14,1.67-.82,2.34-3.45,1.38-.82,2.9-.55,5.25-2.49,3.17-.55,3-1.11,2.9-2.77,2.34-3.58,1.81-3.45,1.65-4.42v-3.6l-2.21-8Z" />
      <polygon id="Drenthe" class="province"
        points="414.72 136.52 414.11 135.48 412.11 133 410.97 132.07 408.78 131.31 411.11 125.2 411.16 124.48 411.02 123.7 410.25 123.52 404.86 116.78 399.71 109.81 395.46 105.31 391.63 101.28 389.55 99.3 386.94 96.72 382.12 91.4 378.25 87.25 377.62 86.8 376.58 86.23 373.65 85.96 366.84 88.21 366.25 88.41 366.04 88.05 365.84 87.76 364.66 84.95 360.9 79.92 359.76 78.97 359.16 78.75 358.82 78.46 357.02 75.3 355.15 72.73 353.95 72.88 351.93 72.02 348.29 70.3 344.3 73.91 342.28 75.18 340.81 76.68 339.16 78.78 338.42 80.58 338.34 81.01 338.01 81.96 336.63 84.88 336.19 86.06 335.72 87.9 333.95 91.1 333.08 91.61 330.81 90.88 330.6 93.38 330.94 93.72 332.67 94.75 335.77 96.08 336.03 96.61 336.29 97.63 336.19 98.63 336.79 100.45 337.19 102.49 343.16 110.51 344.49 113.29 344.3 114.1 344.01 115.11 340.98 120.11 340.3 120.85 335.04 124.39 331.35 121.88 328.89 121.23 325.95 121.24 324.76 122.19 323.99 122.97 320.32 127.2 310.99 134.39 316.52 141.05 317.36 141.81 318.51 143.12 319.51 144.69 319.02 146.24 315.04 150.18 312.14 151.59 311.07 153.44 314.88 163.42 315.41 163.85 316.17 165.16 316.45 165.48 316.92 165.86 317.79 166.1 318.44 166.06 319.33 165.49 319.96 164.92 320.73 164.72 322.47 165.38 325.87 167.73 326.79 168.04 332.1 167.98 332.51 168.06 333.37 169.46 335.04 170.83 336.96 172.78 337.84 174.1 338.73 176.51 338.85 176.79 339.29 176.98 340.03 176.99 342.59 176.2 343.38 175.78 343.96 175.26 344.21 175.31 344.56 175.53 345.08 176.36 345.51 176.81 346.09 177.1 346.72 177.02 347.63 176.45 348.11 175.93 348.93 175.93 349.6 176.05 354.15 178.25 353.83 172.87 354.07 172.03 355.44 170.57 360.8 167.77 364.01 167.19 365.44 167.24 373.39 170.89 374.02 171.4 374.43 171.9 374.38 173.23 374.65 174.73 375.81 175.44 375.89 175.49 377.87 174.05 381.55 172.91 392 172.74 397.83 174.51 403.26 173.7 404.92 174.4 408.85 175.63 410.85 171.76 411.66 165.38 412.68 145.81 413.64 139.73 414.76 136.59 414.72 136.52" />
    </svg>
