<?xml version="1.0" encoding="utf-8"?>
<!-- Generator: Adobe Illustrator 16.0.4, SVG Export Plug-In . SVG Version: 6.00 Build 0)  -->
<!DOCTYPE svg PUBLIC "-//W3C//DTD SVG 1.1//EN" "http://www.w3.org/Graphics/SVG/1.1/DTD/svg11.dtd">
<svg version="1.1" id="Layer_1" xmlns="http://www.w3.org/2000/svg" xmlns:xlink="http://www.w3.org/1999/xlink" x="0px" y="0px"
	 width="214px" height="82px" viewBox="0 0 214 82" enable-background="new 0 0 214 82" xml:space="preserve">
<g id="Logo_web">
	<rect x="0" fill="#164273" width="36.851" height="65.834"/>
	<path fill="#FFFFFF" d="M19.066,49.096h-0.641V47.32h0.641V49.096z M21.955,41.264h-0.642v-1.777h0.642V41.264z M10.09,38.2
		c-0.048,0-0.38,0.001-0.38,0.069s0.153,0.033,0.38,0.071c0.513,0.088,0.715,0.346,1.075,0.346c0.327,0,0.66-0.222,0.529-0.694
		c-0.021-0.079-0.066-0.061-0.077-0.007c-0.051,0.211-0.31,0.332-0.583,0.332C10.696,38.317,10.624,38.2,10.09,38.2z M6.562,39.975
		c0.057,0.078,0.661,0.862-0.268,1.162c-0.041,0.014-0.056,0.054,0.007,0.08c0.686,0.286,1.018-0.24,1.018-0.24
		c0.346,0.789-0.184,1.227-0.184,1.227c0.075,0.144,0.402,0.381,0.9,0.491c0.188-0.101,0.452-0.294,0.562-0.591
		c0,0,0.134,0.346,0.012,0.674c1.4,0.127,1.896-0.992,2.975-0.791c0.031,0.006,0.046-0.014,0.046-0.047
		c0-0.69-0.423-1.952-1.758-2.208c-1.332-0.257-0.974-0.804-0.974-0.804c0.562-0.025,0.887,0.219,0.887,0.219
		c0.103-0.168-0.042-0.35-0.042-0.35c0.054-0.064,0.083-0.293,0.083-0.293c-0.633-0.001-0.799-0.137-0.799-0.137
		c-0.097-0.375,0.164-0.905,1.104-0.338c0.234-0.209,0.217-0.527,0.217-0.527c0.071-0.033,0.115-0.145,0.115-0.192
		c0-0.156-0.751-0.577-0.944-0.627c-0.047-0.228-0.338-0.556-1.221-0.438c-0.417,0.052-0.719-0.058-0.578-0.301
		c0.024-0.041-0.051-0.049-0.09-0.009c-0.097,0.097-0.23,0.369,0.135,0.553c0.405,0.205,0.43,0.611,0.433,0.67
		c0.008,0.086-0.097,0.094-0.119,0.008C7.891,36.48,6.955,36.333,6.4,36.697c0.033,0.367,0.428,0.609,0.645,0.609
		c0.125,0,0.297-0.124,0.297-0.295c0-0.083,0.042-0.072,0.067-0.008c0.092,0.244-0.27,0.748-0.807,0.441
		c-0.545,0.546-0.328,1.219-0.272,1.467c0.098,0.445-0.12,0.877-0.521,0.676c-0.021-0.01-0.041-0.018-0.041,0.03
		C5.767,39.899,6.132,40.215,6.562,39.975z M9.568,37.223c-0.255,0.284-0.67,0.219-0.77-0.25
		C9.322,36.946,9.547,36.999,9.568,37.223z M25.815,38.317c-0.272,0-0.531-0.121-0.582-0.332c-0.011-0.054-0.057-0.072-0.078,0.007
		c-0.13,0.473,0.204,0.694,0.53,0.694c0.36,0,0.562-0.258,1.074-0.346c0.226-0.038,0.38-0.003,0.38-0.071S26.808,38.2,26.76,38.2
		C26.227,38.2,26.154,38.317,25.815,38.317z M31.083,39.619c0-0.048-0.021-0.04-0.041-0.03c-0.401,0.201-0.619-0.23-0.521-0.676
		c0.056-0.248,0.272-0.921-0.272-1.467c-0.537,0.307-0.897-0.197-0.807-0.441c0.025-0.064,0.067-0.075,0.067,0.008
		c0,0.171,0.172,0.295,0.297,0.295c0.216,0,0.611-0.242,0.645-0.609c-0.556-0.364-1.491-0.217-1.679,0.469
		c-0.022,0.086-0.127,0.078-0.12-0.008c0.003-0.059,0.028-0.465,0.434-0.67c0.365-0.184,0.231-0.456,0.136-0.553
		c-0.04-0.04-0.114-0.032-0.09,0.009c0.141,0.243-0.16,0.353-0.578,0.301c-0.883-0.118-1.174,0.21-1.221,0.438
		c-0.193,0.05-0.944,0.471-0.944,0.627c0,0.048,0.044,0.159,0.115,0.192c0,0-0.019,0.318,0.217,0.527
		c0.938-0.567,1.199-0.037,1.103,0.338c0,0-0.165,0.136-0.799,0.137c0,0,0.03,0.229,0.084,0.293c0,0-0.145,0.182-0.042,0.35
		c0,0,0.324-0.244,0.887-0.219c0,0,0.357,0.547-0.975,0.804c-1.335,0.256-1.758,1.518-1.758,2.208c0,0.033,0.014,0.053,0.045,0.047
		c1.079-0.201,1.574,0.918,2.976,0.791c-0.122-0.328,0.012-0.674,0.012-0.674c0.109,0.297,0.375,0.49,0.562,0.592
		c0.497-0.111,0.825-0.35,0.899-0.492c0,0-0.528-0.438-0.185-1.227c0,0,0.332,0.525,1.019,0.24c0.062-0.026,0.047-0.066,0.007-0.08
		c-0.929-0.3-0.324-1.084-0.268-1.162C30.719,40.215,31.083,39.899,31.083,39.619z M28.052,36.973c-0.1,0.469-0.515,0.534-0.77,0.25
		C27.303,36.999,27.528,36.946,28.052,36.973z M18.179,29.108c0,0.118,0.051,0.222,0.091,0.279c0.083,0.117,0.07,0.182,0.031,0.221
		s-0.104,0.052-0.221-0.03c-0.059-0.041-0.161-0.092-0.279-0.092c-0.202,0-0.302,0.133-0.302,0.246s0.1,0.246,0.302,0.246
		c0.118,0,0.221-0.051,0.279-0.092c0.118-0.082,0.183-0.069,0.221-0.03c0.039,0.038-0.018,0.444-0.063,0.764
		c-0.334,0.07-0.495,0.338-0.495,0.494c0,0.402,0.43,0.635,0.683,0.77c0.252-0.135,0.683-0.367,0.683-0.77
		c0-0.156-0.161-0.424-0.495-0.494c-0.046-0.319-0.103-0.726-0.063-0.764c0.039-0.039,0.104-0.052,0.221,0.03
		c0.059,0.041,0.161,0.092,0.279,0.092c0.202,0,0.302-0.133,0.302-0.246s-0.1-0.246-0.302-0.246c-0.118,0-0.221,0.051-0.279,0.092
		c-0.118,0.082-0.183,0.069-0.221,0.03s-0.052-0.104,0.031-0.221c0.041-0.058,0.092-0.161,0.092-0.279
		c0-0.202-0.133-0.303-0.246-0.303C18.312,28.805,18.179,28.906,18.179,29.108z M18.425,32.097c-0.271,0-0.491,0.219-0.491,0.49
		s0.22,0.49,0.491,0.49c0.271,0,0.49-0.22,0.49-0.49C18.916,32.316,18.696,32.097,18.425,32.097z M18.425,36.817
		c1.964,0,3.073,0.375,3.073,0.375c0.011-0.992,0.004-1.546,0.572-1.463c-0.311-0.834,1.029-1.161,1.029-2.248
		c0-0.716-0.506-0.797-0.656-0.797c-0.444,0-0.375,0.289-0.753,0.289c-0.047,0-0.096-0.012-0.096,0.022
		c0,0.125,0.106,0.339,0.28,0.339c0.231,0,0.236-0.232,0.41-0.232c0.074,0,0.182,0.061,0.182,0.299c0,0.462-0.303,0.975-0.66,1.371
		c-0.082-0.113-0.194-0.184-0.328-0.184c-0.211,0-0.396,0.221-0.396,0.493c0,0.101,0.016,0.174,0.053,0.259
		c-0.119,0.066-0.225,0.104-0.305,0.104c-0.161,0-0.404-0.065-0.404-0.419c0-0.787,1.056-1.48,1.056-2.479
		c0-0.477-0.317-0.951-0.982-0.951c-0.713,0-0.581,0.651-1.198,0.651c-0.028,0-0.051,0.009-0.051,0.034
		c0,0.041,0.106,0.401,0.426,0.401c0.342,0,0.438-0.591,0.74-0.591c0.112,0,0.281,0.066,0.281,0.467
		c0,0.312-0.153,0.814-0.376,1.297c-0.079-0.08-0.188-0.139-0.311-0.139c-0.265,0-0.455,0.256-0.455,0.562
		c0,0.193,0.076,0.38,0.208,0.503c-0.156,0.199-0.314,0.361-0.531,0.361c-0.426,0-0.614-0.242-0.614-0.506
		c0-0.285,0.521-0.389,0.521-0.834c0-0.303-0.197-0.474-0.386-0.474c-0.204,0-0.309,0.135-0.329,0.135
		c-0.021,0-0.125-0.135-0.329-0.135c-0.189,0-0.386,0.171-0.386,0.474c0,0.445,0.521,0.549,0.521,0.834
		c0,0.264-0.188,0.506-0.613,0.506c-0.217,0-0.375-0.162-0.531-0.361c0.131-0.123,0.208-0.311,0.208-0.503
		c0-0.306-0.19-0.562-0.455-0.562c-0.123,0-0.231,0.059-0.312,0.139c-0.221-0.482-0.375-0.985-0.375-1.297
		c0-0.4,0.169-0.467,0.282-0.467c0.302,0,0.398,0.591,0.74,0.591c0.319,0,0.426-0.36,0.426-0.401c0-0.025-0.022-0.034-0.051-0.034
		c-0.617,0-0.484-0.651-1.197-0.651c-0.665,0-0.982,0.475-0.982,0.951c0,0.998,1.056,1.691,1.056,2.479
		c0,0.354-0.243,0.419-0.404,0.419c-0.08,0-0.186-0.038-0.305-0.104c0.037-0.085,0.053-0.158,0.053-0.259
		c0-0.272-0.186-0.493-0.396-0.493c-0.135,0-0.245,0.07-0.327,0.184c-0.358-0.396-0.66-0.909-0.66-1.371
		c0-0.238,0.107-0.299,0.182-0.299c0.174,0,0.179,0.232,0.41,0.232c0.173,0,0.28-0.214,0.28-0.339c0-0.034-0.048-0.022-0.095-0.022
		c-0.379,0-0.31-0.289-0.753-0.289c-0.15,0-0.656,0.081-0.656,0.797c0,1.087,1.34,1.414,1.029,2.248
		c0.568-0.083,0.562,0.471,0.572,1.463C15.352,37.192,16.46,36.817,18.425,36.817z M14.823,38.283
		c-0.535,0.117-0.919,0.228-1.091,0.28c0.01-0.236,0.1-0.455,0.31-0.504c0.026-0.007,0.034-0.043,0.009-0.06
		c-0.477-0.316-0.732,0.29-0.739,0.31c-0.169-0.013-0.426,0.04-0.426,0.269c0,0.683-1.562,1.062-1.923,1.117
		c0.638,0.246,0.903,1.05,0.903,1.05c0.463-0.463,1.004-0.871,1.124-0.871c0.122,0,0.17,0.154,0.18,0.246
		c0.003,0.03,0.031,0.04,0.05,0.014c0.242-0.361,0.126-0.443,0.106-0.55c-0.017-0.084,0.009-0.4,0.361-0.363v4.556l-0.182,0.036
		c-0.083,0.016-0.75-0.553-1.512-1.079c-0.763-0.526-1.173-0.212-2.042,0.259c-1.139,0.616-2.289,0.059-2.289,0.059
		c-0.981,0.701-1.315,2.729-1.315,2.729c-0.195,0.084-0.52,0.172-0.827,0.172c-0.749,0-0.887-0.453-0.887-0.725
		c0-1.156,1.448-1.652,1.448-2.792c0-0.276-0.127-1.401-1.52-1.401c-0.178,0-1.239-0.002-1.245-0.002
		c-0.521,0-0.65-0.375-0.724-0.519c-0.028-0.056-0.081-0.023-0.061,0.021c0.04,0.096-0.061,0.241-0.061,0.53
		c0,0.463,0.272,0.741,0.778,0.741c0.229,0,0.447-0.064,0.518-0.107c0.047-0.027,0.072,0.018,0.05,0.043
		c-0.221,0.258-0.237,0.74-0.146,0.857c0.021,0.027,0.048,0.021,0.054-0.002c0.122-0.489,0.58-0.951,1.197-0.951
		c0.755,0,0.751,0.643,0.751,0.797c0,0.928-1.629,1.607-1.629,2.885c0,1.293,1.367,1.57,2.159,1.365
		c-0.046,1.295-1.529,1.736-1.574,0.811c-0.003-0.045-0.035-0.055-0.061,0.004c-0.188,0.457-0.112,0.859,0.465,0.988
		c0.039,0.01,0.02,0.03-0.017,0.055c-0.571,0.363-0.262,1.791-0.232,2.211c0.043,0.605-0.56,0.533-0.608,0.517
		c-0.025-0.01-0.049,0.003-0.011,0.052c0.427,0.522,0.954,0.045,0.954,0.045c0.397,0.125,0.15,0.465-0.114,0.643
		c-0.042,0.027-0.038,0.057,0.007,0.059c0.061,0.004,0.676,0.057,0.786-0.436c0.272,0.326,0.674,0.207,0.759,0.164
		c0.119-0.061,0.696-0.271,0.754,0.379c0.003,0.047,0.031,0.018,0.05-0.008c0.438-0.549-0.03-0.889-0.291-0.928
		c0.021-0.031,0.371-0.32,0.687,0.082c0.021,0.026,0.041,0.032,0.045-0.021c0.036-0.696-0.53-0.76-0.897-0.457
		c-0.017-0.071-0.139-0.463,0.415-0.449c0.014,0,0.04-0.02,0.013-0.047c-0.431-0.454-0.783-0.041-0.865,0.059
		c-0.191,0.226-0.668,0.135-0.712,0.129c0.148-2.42,2.281-1.562,2.574-2.737c0.014-0.062,0.042-0.039,0.047-0.017
		c0.081,0.287,0.804,0.326,0.937-0.238c0.007-0.035,0.003-0.062-0.021-0.036c-0.617,0.616-2.007-1.312-0.11-2.876
		c1.619-1.336,3.07-0.592,3.622-0.151c0.029,0.193-0.086,0.257-0.16,0.279c-0.025,0.008-0.035,0.032,0.007,0.049
		c0.154,0.06,0.372,0.04,0.475-0.104c0.348,0.244,0.05,0.549-0.091,0.635c-0.036,0.021-0.021,0.046,0.01,0.052
		c0.318,0.058,0.582-0.269,0.595-0.456l0.054,0.029v1.375c0,1.959,2.26,2.23,4.738,3.891c2.479-1.66,4.737-1.932,4.737-3.891v-1.375
		l0.054-0.029c0.013,0.188,0.275,0.514,0.595,0.456c0.03-0.006,0.045-0.028,0.011-0.052c-0.142-0.086-0.438-0.391-0.092-0.635
		c0.103,0.146,0.319,0.164,0.475,0.104c0.042-0.017,0.034-0.041,0.007-0.049c-0.073-0.022-0.188-0.086-0.159-0.279
		c0.552-0.438,2.003-1.185,3.622,0.151c1.896,1.564,0.506,3.492-0.11,2.876c-0.025-0.026-0.029,0.001-0.021,0.036
		c0.133,0.564,0.855,0.525,0.937,0.238c0.007-0.022,0.034-0.047,0.049,0.017c0.293,1.176,2.425,0.317,2.573,2.737
		c-0.044,0.006-0.521,0.097-0.712-0.129c-0.082-0.1-0.436-0.513-0.865-0.059c-0.027,0.027-0.002,0.047,0.013,0.047
		c0.554-0.014,0.432,0.378,0.414,0.449c-0.366-0.303-0.934-0.239-0.896,0.457c0.003,0.055,0.024,0.049,0.045,0.021
		c0.314-0.402,0.664-0.113,0.687-0.082c-0.261,0.039-0.729,0.379-0.291,0.928c0.019,0.023,0.046,0.055,0.05,0.008
		c0.057-0.648,0.635-0.439,0.754-0.379c0.084,0.043,0.485,0.162,0.759-0.164c0.109,0.49,0.728,0.439,0.786,0.436
		c0.044-0.002,0.048-0.029,0.007-0.059c-0.266-0.178-0.513-0.518-0.113-0.643c0,0,0.526,0.479,0.953-0.045
		c0.038-0.049,0.015-0.062-0.011-0.052c-0.049,0.019-0.651,0.091-0.607-0.517c0.027-0.42,0.338-1.848-0.233-2.211
		c-0.036-0.023-0.055-0.045-0.016-0.055c0.576-0.129,0.65-0.531,0.464-0.988c-0.024-0.059-0.058-0.049-0.061-0.004
		c-0.045,0.927-1.526,0.484-1.573-0.811c0.792,0.205,2.158-0.072,2.158-1.365c0-1.275-1.629-1.957-1.629-2.885
		c0-0.154-0.004-0.797,0.751-0.797c0.617,0,1.075,0.462,1.197,0.951c0.005,0.021,0.032,0.029,0.054,0.002
		c0.091-0.117,0.073-0.6-0.146-0.857c-0.022-0.025,0.002-0.07,0.05-0.043c0.07,0.043,0.287,0.107,0.517,0.107
		c0.507,0,0.778-0.278,0.778-0.741c0-0.289-0.1-0.435-0.06-0.53c0.02-0.044-0.034-0.076-0.062-0.021
		c-0.073,0.144-0.203,0.519-0.724,0.519c-0.005,0-1.067,0.002-1.246,0.002c-1.392,0-1.52,1.125-1.52,1.401
		c0,1.14,1.448,1.636,1.448,2.792c0,0.271-0.137,0.725-0.887,0.725c-0.308,0-0.631-0.088-0.826-0.172c0,0-0.334-2.027-1.315-2.729
		c0,0-1.15,0.559-2.288-0.059c-0.87-0.471-1.28-0.785-2.043-0.259c-0.764,0.526-1.43,1.095-1.513,1.079l-0.182-0.036V39.22
		c0.354-0.037,0.378,0.279,0.363,0.363c-0.021,0.106-0.137,0.188,0.105,0.55c0.02,0.026,0.047,0.017,0.05-0.014
		c0.011-0.092,0.058-0.246,0.181-0.246c0.118,0,0.66,0.408,1.124,0.871c0,0,0.266-0.804,0.902-1.05
		c-0.361-0.056-1.924-0.435-1.924-1.117c0-0.229-0.257-0.281-0.426-0.269c-0.008-0.02-0.263-0.626-0.739-0.31
		c-0.024,0.017-0.019,0.053,0.009,0.06c0.21,0.049,0.301,0.268,0.31,0.504c-0.455-0.14-2.395-0.684-4.692-0.684
		c-1.116,0-2.144,0.129-2.961,0.276v1.579h-0.641v-1.45H14.823 M10.582,54.459c-0.17-0.068-0.282-0.178-0.282-0.401v-0.979
		c-0.281-0.1-1.049-0.393-2.581-0.393c-1.273,0-1.672,0.287-1.691,0.389L5.69,54.942c0,0,0.517-0.473,2.362-0.352
		c2.225,0.143,4.529,1.455,4.529,0.056v-0.823C10.837,53.823,10.582,54.377,10.582,54.459z M24.27,53.823v0.823
		c0,1.399,2.306,0.087,4.529-0.056c1.847-0.12,2.362,0.352,2.362,0.352l-0.34-1.867c-0.018-0.102-0.417-0.389-1.69-0.389
		c-1.532,0-2.3,0.293-2.581,0.393v0.979c0,0.224-0.112,0.333-0.282,0.401C26.269,54.377,26.013,53.823,24.27,53.823z M18.425,52.975
		c3.582,0,7.219,0.188,7.695,0.729c0.038,0.043,0.054-0.002,0.054-0.033l0.001-1.898c0-0.555-3.753-0.876-7.75-0.876
		s-7.75,0.321-7.75,0.876l0.001,1.898c0,0.031,0.016,0.076,0.054,0.033C11.206,53.163,14.843,52.975,18.425,52.975z M15.23,44.024
		l-0.361-0.094l-0.03,0.045l-0.42-0.186c0,0,0.31-0.002,0.376-0.002c0.035,0,0.038-0.022,0.019-0.041
		c-0.171-0.168-0.32-0.313-0.32-0.313s0.171,0.063,0.415,0.153c0.027,0.011,0.037-0.01,0.024-0.028
		c-0.117-0.173-0.277-0.405-0.277-0.405s0.339,0.227,0.407,0.271c0.022,0.017,0.04,0.002,0.03-0.021
		c-0.09-0.224-0.193-0.478-0.193-0.478l0.372,0.352c0.018,0.016,0.036,0.008,0.031-0.018c-0.036-0.166-0.103-0.477-0.103-0.477
		l0.271,0.398c0.016,0.023,0.037,0.018,0.037-0.012c0.001-0.078,0.009-0.436,0.009-0.436s0.115,0.266,0.173,0.4
		c0.013,0.027,0.032,0.029,0.047-0.006c0.019-0.043,0.141-0.338,0.141-0.338l0.016,0.453l-0.061,0.012l-0.076,0.547
		c0.541-0.127,1.215-1.053,1.73-1.053c0.615,0,0.84,0.722,1.977,0.355c0.287,0.426,0.387,0.794,0.498,1.305
		c0.438,0.414,1.055,0.275,1.055-0.162c0-0.588-0.642-0.701-0.642-1.314c0-0.273,0.191-0.669,0.717-0.669
		c0.277,0,0.684,0.118,0.918,0.118c0.278,0,0.337-0.2,0.368-0.283c0.024-0.062,0.101-0.042,0.094,0.007
		c-0.009,0.058,0.032,0.138,0.032,0.271c0,0.389-0.565,0.438-0.636,0.392c-0.029-0.021-0.051,0.011-0.029,0.026
		c0.085,0.068,0.065,0.301-0.035,0.447c-0.012,0.018-0.028,0.014-0.031-0.002c-0.061-0.277-0.387-0.621-0.675-0.621
		c-0.105,0-0.316,0.062-0.316,0.305c0,0.351,0.7,0.668,0.7,1.394c0,0.753-0.746,0.935-1.496,0.746
		c0.025,0.713,1.091,1.138,1.115,0.627c0.001-0.034,0.021-0.015,0.031,0.001c0.158,0.219,0.086,0.385-0.115,0.469
		c0.187,0.084,0.219,0.457,0.273,0.682c0.082,0.334,0.437,0.148,0.455,0.14c0.019-0.013,0.025-0.001,0.018,0.021
		c-0.135,0.35-0.492,0.217-0.492,0.217c-0.188,0.133,0.039,0.25,0.209,0.302c0.025,0.007,0.024,0.024,0.004,0.033
		c-0.125,0.046-0.394,0.13-0.522-0.095c-0.097,0.231-0.294,0.226-0.371,0.226c-0.137,0-0.229,0.142-0.196,0.328
		c0.003,0.017-0.009,0.021-0.021,0.012c-0.327-0.217-0.14-0.472-0.007-0.534c-0.023-0.015-0.248-0.107-0.345,0.155
		c-0.007,0.021-0.02,0.021-0.026,0.002c-0.144-0.38,0.169-0.489,0.394-0.396c-0.016-0.053-0.133-0.238-0.429-0.18
		c-0.014,0.004-0.022-0.002-0.015-0.021c0.049-0.115,0.195-0.287,0.464-0.113c0.137,0.085,0.372-0.039,0.395-0.05
		c-0.477-0.948-1.402-0.154-1.609-0.897c-0.004-0.016-0.021-0.029-0.034,0.012c-0.05,0.158-0.453,0.17-0.527-0.143
		c-0.006-0.023,0.003-0.027,0.019-0.012c0.06,0.061,0.187,0.113,0.354-0.129c0.109-0.158,0.126-0.371,0.126-0.516
		c0-0.578-0.576-1.545-1.476-1.545c-0.567,0-1.178,0.221-1.631,0.551l0.422,0.098c-0.04,0.427-0.449,0.675-0.826,0.57l0.064-0.488
		c-0.064,0.021-0.23,0.078-0.318,0.205c-0.007,0.01-0.021,0.007-0.022-0.004c-0.077-0.276,0.151-0.416,0.223-0.452
		c0.009-0.005,0.007-0.011-0.007-0.011c-0.205-0.008-0.32,0.143-0.352,0.193c-0.005,0.008-0.015,0.006-0.018-0.001
		C15.171,44.268,15.135,44.125,15.23,44.024z M16.483,47.321c-0.162,0.197-0.303,0.01-0.515,0.01c-0.2,0-0.233,0.166-0.238,0.232
		c-0.001,0.012-0.008,0.018-0.016,0.004c-0.227-0.309,0.026-0.477,0.174-0.499c-0.021-0.021-0.244-0.171-0.385,0.034
		c-0.011,0.016-0.024,0.008-0.024-0.01c-0.007-0.383,0.297-0.41,0.497-0.242c0.036-0.145-0.058-0.242-0.22-0.25
		c-0.021,0-0.022-0.014-0.015-0.021c0.067-0.072,0.134-0.105,0.199-0.105c0.213,0,0.24,0.27,0.379,0.27
		c0.209,0,0.505-0.281,0.533-0.312c-0.006-0.017-0.206-0.558-0.166-0.882c0.002-0.014-0.005-0.016-0.015-0.01
		c-0.102,0.058-0.357,0.056-0.357-0.261c0-0.024,0.007-0.026,0.021-0.007c0.111,0.154,0.294-0.02,0.385-0.122
		c0.099-0.108,0.624-0.875,1.326-0.875c0.154,0.001,0.354,0.085,0.514,0.196c-0.242,0.295-0.002,0.576,0.178,0.541
		c0.021-0.004,0.025,0.016,0.006,0.021c-0.928,0.35-1.343,0.488-1.343,1.266c0,0.404,0.14,0.63,0.376,0.576
		c0.019-0.004,0.023,0.004,0.011,0.018c-0.086,0.104-0.187,0.137-0.269,0.137c-0.191,0-0.227-0.105-0.331-0.105
		c-0.105,0-0.452,0.203-0.452,0.373c0,0.064,0.041,0.152,0.163,0.231c0.009,0.005,0.003,0.013-0.003,0.013
		C16.821,47.556,16.547,47.581,16.483,47.321z M18.925,39.772c-0.29-0.018-0.476,0.047-0.467,0.14
		C18.6,40.06,18.787,40.043,18.925,39.772z M17.855,40.489c0.205-0.052,0.431-0.027,0.454-0.021c0.032,0.011,0.031,0.06-0.005,0.064
		c-0.427,0.055-0.447,0.251-0.719,0.251c-0.181,0-0.374-0.181-0.301-0.447c0.009-0.034,0.035-0.035,0.044-0.003
		C17.355,40.45,17.521,40.575,17.855,40.489z M12.312,49.956c0.283,0.361,0.555,0.021,0.925,0.021c0.182,0,0.402,0.062,0.443,0.425
		c0.002,0.02,0.019,0.023,0.035,0c0.404-0.553-0.056-0.863-0.321-0.904c0.058-0.052,0.453-0.295,0.703,0.064
		c0.014,0.02,0.041,0.014,0.041-0.014c0-0.699-0.524-0.748-0.903-0.445c-0.07-0.271,0.135-0.452,0.398-0.452
		c0.032,0,0.043-0.021,0.026-0.04c-0.469-0.502-0.819,0.129-0.898,0.229c-0.187,0.25-0.856-0.219-1.123-0.496
		c0,0,0.591-0.619,0.591-1.186c0-0.033-0.004-0.082-0.004-0.102c0-0.018,0.008-0.023,0.024-0.016
		c0.059,0.033,0.142,0.059,0.218,0.058c0.135,0,0.391-0.043,0.391-0.522c0-0.037-0.017-0.035-0.031-0.014
		c-0.07,0.102-0.148,0.124-0.208,0.124c-0.478,0-1.475-1.593-2.648-1.593c-0.307,0-0.888,0.223-1.181,0.539
		c0.142,0.084,0.169,0.257,0.153,0.383c-0.021,0.201-0.182,0.302-0.346,0.348c-0.029,0.008-0.032,0.028,0,0.041
		c0.593,0.227,1.673,0.637,1.918,0.848c0.29,0.25,0.233,0.725,0.065,1.377c-0.163,0.629-0.511,0.543-0.639,0.521
		c-0.019-0.003-0.024,0.01-0.013,0.023c0.153,0.193,0.339,0.258,0.499,0.258c0.308,0,0.423-0.191,0.583-0.191
		c0.269,0,0.831,0.385,0.831,0.678c0,0.164-0.128,0.313-0.294,0.422c-0.011,0.008-0.009,0.021,0.007,0.022
		C11.685,50.383,12.21,50.428,12.312,49.956z M25.294,50.362c0.016-0.003,0.019-0.016,0.008-0.023
		c-0.166-0.106-0.294-0.256-0.294-0.42c0-0.293,0.562-0.678,0.831-0.678c0.16,0,0.274,0.19,0.583,0.19c0.16,0,0.346-0.063,0.5-0.259
		c0.011-0.014,0.005-0.025-0.013-0.022c-0.129,0.021-0.477,0.106-0.639-0.521c-0.168-0.653-0.225-1.129,0.065-1.379
		c0.245-0.211,1.324-0.619,1.918-0.847c0.032-0.013,0.029-0.034,0-0.041c-0.164-0.046-0.324-0.146-0.346-0.348
		c-0.016-0.126,0.012-0.298,0.153-0.382c-0.293-0.317-0.875-0.539-1.182-0.539c-1.175,0-2.171,1.592-2.648,1.592
		c-0.06,0-0.137-0.021-0.207-0.124c-0.016-0.021-0.031-0.022-0.031,0.013c0,0.48,0.255,0.523,0.39,0.523
		c0.077,0.001,0.159-0.023,0.218-0.057c0.017-0.01,0.023-0.004,0.023,0.015c0,0.021-0.004,0.067-0.004,0.101
		c0,0.566,0.592,1.186,0.592,1.186c-0.269,0.279-0.938,0.746-1.124,0.498c-0.08-0.102-0.43-0.731-0.898-0.229
		c-0.017,0.019-0.005,0.04,0.026,0.04c0.264,0,0.469,0.18,0.397,0.452c-0.379-0.304-0.902-0.254-0.902,0.444
		c0,0.027,0.026,0.033,0.041,0.015c0.25-0.358,0.646-0.116,0.703-0.063c-0.266,0.039-0.726,0.352-0.321,0.903
		c0.017,0.024,0.033,0.019,0.035,0c0.042-0.362,0.263-0.425,0.442-0.425c0.371,0,0.643,0.341,0.926-0.021
		C24.64,50.428,25.166,50.383,25.294,50.362z M15.786,41.178c-0.038,0.052-0.161-0.002-0.208-0.022c-0.012-0.005-0.014,0-0.01,0.008
		c0.03,0.066,0.149,0.266,0.326,0.266c0.08,0,0.197-0.048,0.23-0.101c0,0,0.691,0.225,1.034,0.319
		c-0.134,0.178-0.217,0.391-0.232,0.621c-0.276-0.17-1.38-0.762-1.38-0.762l-0.342,0.468c-0.058,0.077-0.33-0.122-0.273-0.2
		l0.261-0.357c-0.086-0.091-0.295-0.033-0.352-0.018c-0.008,0.002-0.015-0.002-0.008-0.016c0.033-0.07,0.163-0.287,0.487-0.189
		c0.001-0.198-0.295-0.135-0.371-0.113c-0.01,0.002-0.013-0.002-0.005-0.011c0.08-0.086,0.32-0.28,0.59-0.121l0.116-0.161
		l-0.236-0.249l0.147-0.204l0.166,0.224l1.274-1.745c0.031-0.043,0.284-0.116,0.379-0.137c0.01,0.098,0.021,0.359-0.009,0.402
		l-1.253,1.761l0.264,0.087l-0.146,0.205l-0.312-0.146L15.786,41.178z M20.255,40.893c0,0.16,0.099,0.395,0.312,0.327
		c0.012-0.005,0.021-0.002,0.019,0.009c-0.033,0.18-0.352,0.342-0.497,0.131c-0.129,0.271-0.1,0.527,0.18,0.678
		c0.016,0.01,0.019,0.028,0,0.041c-0.166,0.121-0.425,0.094-0.545-0.139c-0.229,0.172-0.195,0.539-0.057,0.664
		c0,0.002-0.633,0.376-1.207,0.107c-0.381-0.183-0.691-0.416-1.183-0.377c0.068-0.688,0.413-0.871,1.045-0.969
		c0.507-0.083,0.57-0.315,0.498-0.491c-0.172-0.046-0.485,0.112-0.485,0.112c-0.058-0.095,0.024-0.193,0.024-0.193
		c-0.03-0.038-0.047-0.165-0.047-0.165c0.354,0,0.416-0.078,0.416-0.078c0.063-0.368-0.312-0.407-0.598-0.209
		c-0.133-0.117-0.111-0.273-0.111-0.273c-0.04-0.02-0.063-0.081-0.063-0.107c0-0.087,0.419-0.323,0.526-0.351
		c0.027-0.122,0.181-0.291,0.625-0.251c0.054-0.118-0.032-0.549-0.088-0.665c-0.018-0.035,0.008-0.055,0.047-0.03
		c0.156,0.099,0.312,0.462,0.416,0.469c0,0,0.501-0.263,0.525-0.248c0.023,0.014,0.095,0.573,0.095,0.573
		c0.066,0.082,0.453,0.002,0.622,0.074c0.043,0.019,0.041,0.05,0.003,0.056c-0.126,0.021-0.53,0.195-0.596,0.307
		C20.364,40.242,20.255,40.752,20.255,40.893z"/>
</g>
<g>
	<path d="M45.547,39.823c0.468-0.132,0.696-0.372,0.696-0.911v-5.889l-0.756-0.24V32.52c0.756-0.132,1.439-0.18,2.387-0.18
		c1.811,0,2.675,0.708,2.675,2.027c0,1.188-0.66,1.967-1.727,2.291l1.691,2.267c0.288,0.384,0.684,0.672,1.115,0.815v0.228
		c-0.228,0.156-0.528,0.264-0.912,0.264c-0.516,0-0.851-0.204-1.283-0.852l-1.583-2.398h-0.563v2.531l0.755,0.192v0.264
		c-0.396,0.12-0.839,0.204-1.367,0.204c-0.42,0-0.78-0.036-1.127-0.12V39.823z M47.753,36.405c0.936,0,1.703-0.612,1.703-1.859
		c0-0.983-0.624-1.547-1.655-1.547c-0.156,0-0.36,0.024-0.516,0.048v3.358H47.753z"/>
	<path d="M51.954,39.847c0.324-0.12,0.636-0.359,0.636-0.647v-4.054l-0.768-0.324V34.57c0.54-0.156,1.091-0.228,1.427-0.228h0.384
		l-0.06,0.648v4.557l0.672,0.18v0.228c-0.408,0.144-0.78,0.204-1.391,0.204c-0.276,0-0.624-0.024-0.9-0.108V39.847z M52.458,32.555
		c0-0.372,0.264-0.708,0.684-0.708c0.336,0,0.624,0.252,0.624,0.648c0,0.419-0.288,0.743-0.671,0.743
		C52.734,33.239,52.458,32.951,52.458,32.555z"/>
	<path d="M55.65,35.146l-0.768-0.324V34.57c0.552-0.156,1.091-0.228,1.439-0.228h0.384l-0.072,0.672v5.385
		c0,1.967-0.587,2.578-1.355,2.578c-0.264,0-0.528-0.096-0.672-0.287v-0.191c0.528,0,1.043-0.6,1.043-1.824V35.146z M55.518,32.555
		c0-0.372,0.264-0.708,0.684-0.708c0.336,0,0.624,0.252,0.624,0.648c0,0.419-0.288,0.743-0.671,0.743
		C55.794,33.239,55.518,32.951,55.518,32.555z"/>
	<path d="M57.99,39.847c0.324-0.12,0.647-0.359,0.647-0.647v-6.956l-0.792-0.324v-0.264c0.552-0.156,1.104-0.216,1.439-0.216h0.408
		l-0.072,0.672v4.797l0.66-0.576c0.648-0.552,1.235-1.379,1.235-1.919c0.216-0.072,0.396-0.096,0.636-0.096
		c0.18,0,0.324,0.036,0.48,0.108c-0.024,0.516-0.54,1.332-1.631,2.111l-0.42,0.3l1.847,2.243c0.336,0.408,0.636,0.576,0.888,0.576
		v0.252c-0.264,0.18-0.54,0.252-0.888,0.252c-0.336,0-0.624-0.144-0.852-0.456l-1.955-2.579v2.422l0.624,0.192v0.228
		c-0.444,0.144-0.792,0.192-1.355,0.192c-0.276,0-0.624-0.024-0.899-0.108V39.847z"/>
	<path d="M63.426,38.756c0.54,0.504,1.056,0.756,1.691,0.756c0.672,0,1.02-0.324,1.02-0.744s-0.24-0.684-1.031-1.02l-0.6-0.252
		c-0.696-0.3-1.08-0.804-1.08-1.487c0-0.947,0.839-1.763,2.087-1.763c0.959,0,1.343,0.288,1.343,0.744
		c0,0.18-0.024,0.335-0.06,0.503c-0.384-0.264-0.912-0.456-1.367-0.456c-0.768,0-1.127,0.336-1.127,0.744
		c0,0.432,0.216,0.671,0.936,0.947l0.647,0.252c0.864,0.336,1.188,0.78,1.188,1.487c0,0.923-0.888,1.763-2.231,1.763
		c-1.055,0-1.523-0.335-1.523-0.983C63.318,39.08,63.354,38.888,63.426,38.756z"/>
	<path d="M67.782,39.847c0.324-0.12,0.636-0.359,0.636-0.647v-4.054l-0.768-0.324V34.57c0.54-0.156,1.091-0.228,1.427-0.228h0.384
		l-0.06,0.648v4.557l0.672,0.18v0.228c-0.408,0.144-0.78,0.204-1.391,0.204c-0.276,0-0.624-0.024-0.9-0.108V39.847z M68.286,32.555
		c0-0.372,0.264-0.708,0.684-0.708c0.336,0,0.624,0.252,0.624,0.648c0,0.419-0.288,0.743-0.671,0.743
		C68.562,33.239,68.286,32.951,68.286,32.555z"/>
	<path d="M70.89,39.847c0.312-0.12,0.636-0.359,0.636-0.647v-4.054l-0.779-0.324v-0.264c0.552-0.156,1.091-0.216,1.439-0.216h0.288
		v0.648c0.408-0.408,1.079-0.672,1.775-0.672c0.996,0,1.679,0.636,1.679,1.871v3.358l0.624,0.18v0.228
		c-0.324,0.132-0.744,0.204-1.259,0.204c-0.252,0-0.54-0.024-0.78-0.108v-0.204c0.3-0.132,0.432-0.359,0.432-0.792v-2.291
		c0-1.175-0.492-1.619-1.2-1.619c-0.492,0-0.971,0.168-1.235,0.372v4.03l0.672,0.18v0.228c-0.408,0.144-0.792,0.204-1.391,0.204
		c-0.288,0-0.624-0.024-0.9-0.108V39.847z"/>
	<path d="M77.262,38.756c0.54,0.504,1.056,0.756,1.691,0.756c0.672,0,1.02-0.324,1.02-0.744s-0.24-0.684-1.031-1.02l-0.6-0.252
		c-0.696-0.3-1.08-0.804-1.08-1.487c0-0.947,0.839-1.763,2.087-1.763c0.959,0,1.343,0.288,1.343,0.744
		c0,0.18-0.024,0.335-0.06,0.503c-0.384-0.264-0.912-0.456-1.367-0.456c-0.768,0-1.127,0.336-1.127,0.744
		c0,0.432,0.216,0.671,0.936,0.947l0.647,0.252c0.864,0.336,1.188,0.78,1.188,1.487c0,0.923-0.888,1.763-2.231,1.763
		c-1.055,0-1.523-0.335-1.523-0.983C77.154,39.08,77.19,38.888,77.262,38.756z"/>
	<path d="M82.134,36.777l0.036-1.595h-0.66v-0.396l1.295-1.283l0.396-0.048l-0.048,1.079h1.583l-0.084,0.648h-1.535l-0.024,1.511
		c-0.012,0.504-0.012,0.96-0.012,1.403c0,0.972,0.288,1.308,0.731,1.308c0.348,0,0.648-0.12,0.888-0.312l0.12,0.048
		c-0.048,0.708-0.468,1.067-1.295,1.067c-0.959,0-1.427-0.503-1.427-1.667C82.097,37.964,82.121,37.329,82.134,36.777z"/>
	<path d="M85.181,39.847c0.324-0.12,0.636-0.359,0.636-0.647v-4.054l-0.768-0.324V34.57c0.54-0.156,1.091-0.228,1.427-0.228h0.384
		l-0.06,0.648v4.557l0.672,0.18v0.228c-0.408,0.144-0.78,0.204-1.391,0.204c-0.276,0-0.624-0.024-0.9-0.108V39.847z M85.685,32.555
		c0-0.372,0.264-0.708,0.684-0.708c0.336,0,0.624,0.252,0.624,0.648c0,0.419-0.288,0.743-0.671,0.743
		C85.961,33.239,85.685,32.951,85.685,32.555z"/>
	<path d="M88.805,36.777l0.036-1.595h-0.66v-0.396l1.295-1.283l0.396-0.048l-0.048,1.079h1.583l-0.084,0.648h-1.535l-0.024,1.511
		c-0.012,0.504-0.012,0.96-0.012,1.403c0,0.972,0.288,1.308,0.731,1.308c0.348,0,0.648-0.12,0.888-0.312l0.12,0.048
		c-0.048,0.708-0.468,1.067-1.295,1.067c-0.959,0-1.427-0.503-1.427-1.667C88.769,37.964,88.793,37.329,88.805,36.777z"/>
	<path d="M92.369,35.146l-0.684-0.336v-0.252c0.54-0.156,1.007-0.228,1.343-0.228h0.396l-0.072,0.671v2.71
		c0,1.259,0.396,1.667,1.163,1.667c0.444,0,0.899-0.167,1.175-0.348v-3.886l-0.695-0.336v-0.252c0.552-0.156,1.02-0.228,1.355-0.228
		h0.396l-0.072,0.671v4.054c0.084,0.204,0.264,0.42,0.456,0.624c-0.18,0.192-0.516,0.419-0.815,0.563
		c-0.24-0.168-0.456-0.42-0.564-0.696c-0.3,0.276-0.983,0.636-1.727,0.636c-1.02,0-1.655-0.587-1.655-1.967V35.146z"/>
	<path d="M98.585,35.146l-0.684-0.336v-0.252c0.54-0.156,1.007-0.228,1.343-0.228h0.396l-0.072,0.671v2.71
		c0,1.259,0.396,1.667,1.163,1.667c0.444,0,0.899-0.167,1.175-0.348v-3.886l-0.695-0.336v-0.252c0.552-0.156,1.02-0.228,1.355-0.228
		h0.396l-0.072,0.671v4.054c0.084,0.204,0.264,0.42,0.455,0.624c-0.18,0.192-0.515,0.419-0.815,0.563
		c-0.24-0.168-0.456-0.42-0.564-0.696c-0.3,0.276-0.983,0.636-1.727,0.636c-1.02,0-1.655-0.587-1.655-1.967V35.146z"/>
	<path d="M104.801,36.777l0.036-1.595h-0.659v-0.396l1.295-1.283l0.396-0.048l-0.048,1.079h1.583l-0.084,0.648h-1.535l-0.023,1.511
		c-0.012,0.504-0.012,0.96-0.012,1.403c0,0.972,0.287,1.308,0.731,1.308c0.348,0,0.647-0.12,0.888-0.312l0.119,0.048
		c-0.048,0.708-0.468,1.067-1.295,1.067c-0.96,0-1.428-0.503-1.428-1.667C104.765,37.964,104.789,37.329,104.801,36.777z"/>
	<path d="M109.734,34.978l-0.492-0.348v-0.288h2.291v0.288l-0.684,0.288l1.295,3.802h0.013l1.331-3.766l-0.684-0.324v-0.288h1.847
		v0.288l-0.336,0.276l-2.135,5.289l-0.407,0.024L109.734,34.978z"/>
	<path d="M117.591,34.247c1.476,0,2.615,1.104,2.615,2.771c0,1.979-1.38,3.226-2.807,3.226c-1.451,0-2.627-1.02-2.627-2.771
		C114.773,35.506,116.116,34.247,117.591,34.247z M117.472,39.547c0.803,0,1.643-0.779,1.643-2.422c0-1.403-0.756-2.183-1.607-2.183
		c-0.827,0-1.643,0.828-1.643,2.411C115.865,38.804,116.62,39.547,117.472,39.547z"/>
	<path d="M123.831,34.247c1.476,0,2.615,1.104,2.615,2.771c0,1.979-1.38,3.226-2.807,3.226c-1.451,0-2.627-1.02-2.627-2.771
		C121.013,35.506,122.357,34.247,123.831,34.247z M123.712,39.547c0.803,0,1.643-0.779,1.643-2.422c0-1.403-0.756-2.183-1.607-2.183
		c-0.827,0-1.643,0.828-1.643,2.411C122.105,38.804,122.861,39.547,123.712,39.547z"/>
	<path d="M127.337,39.847c0.312-0.12,0.636-0.359,0.636-0.647v-4.054l-0.779-0.324v-0.264c0.552-0.156,1.091-0.216,1.439-0.216
		h0.287v0.84h0.013l0.336-0.372c0.323-0.348,0.647-0.528,1.055-0.528c0.42,0,0.624,0.18,0.624,0.516
		c0,0.228-0.072,0.492-0.192,0.719c-0.228-0.18-0.491-0.276-0.743-0.276c-0.372,0-0.72,0.168-1.056,0.492v3.813l0.828,0.18v0.228
		c-0.408,0.144-0.804,0.204-1.487,0.204c-0.348,0-0.684-0.024-0.96-0.108V39.847z"/>
	<path d="M133.421,32.987l-0.648-0.204v-0.252c0.408-0.132,0.78-0.192,1.188-0.192c0.444,0,0.636,0.012,1.104,0.108v0.228
		c-0.384,0.108-0.479,0.384-0.372,0.744l1.439,4.917h0.012l1.56-5.337l-0.756-0.204v-0.252c0.444-0.132,0.852-0.204,1.296-0.204
		c0.312,0,0.539,0.036,0.815,0.12v0.228c-0.324,0.12-0.528,0.335-0.684,0.827l-2.123,6.608l-0.479,0.036L133.421,32.987z"/>
	<path d="M141.723,34.247c1.476,0,2.615,1.104,2.615,2.771c0,1.979-1.38,3.226-2.807,3.226c-1.451,0-2.627-1.02-2.627-2.771
		C138.905,35.506,140.248,34.247,141.723,34.247z M141.604,39.547c0.803,0,1.643-0.779,1.643-2.422c0-1.403-0.756-2.183-1.607-2.183
		c-0.827,0-1.643,0.828-1.643,2.411C139.996,38.804,140.752,39.547,141.604,39.547z"/>
	<path d="M145.229,39.847c0.312-0.12,0.636-0.359,0.636-0.647v-6.956l-0.779-0.324v-0.264c0.539-0.156,1.104-0.216,1.439-0.216
		h0.384l-0.061,0.672v7.436l0.672,0.18v0.228c-0.408,0.144-0.792,0.204-1.392,0.204c-0.287,0-0.623-0.024-0.899-0.108V39.847z"/>
	<path d="M148.277,39.847c0.324-0.12,0.647-0.359,0.647-0.647v-6.956l-0.791-0.324v-0.264c0.552-0.156,1.103-0.216,1.438-0.216
		h0.408l-0.072,0.672v4.797l0.66-0.576c0.647-0.552,1.235-1.379,1.235-1.919c0.216-0.072,0.396-0.096,0.636-0.096
		c0.18,0,0.323,0.036,0.479,0.108c-0.024,0.516-0.54,1.332-1.631,2.111l-0.42,0.3l1.847,2.243c0.336,0.408,0.636,0.576,0.888,0.576
		v0.252c-0.264,0.18-0.54,0.252-0.888,0.252c-0.336,0-0.624-0.144-0.852-0.456l-1.955-2.579v2.422l0.624,0.192v0.228
		c-0.444,0.144-0.792,0.192-1.355,0.192c-0.275,0-0.624-0.024-0.899-0.108V39.847z"/>
	<path d="M153.713,38.756c0.539,0.504,1.055,0.756,1.69,0.756c0.672,0,1.02-0.324,1.02-0.744s-0.24-0.684-1.031-1.02l-0.6-0.252
		c-0.695-0.3-1.079-0.804-1.079-1.487c0-0.947,0.839-1.763,2.086-1.763c0.96,0,1.344,0.288,1.344,0.744
		c0,0.18-0.024,0.335-0.06,0.503c-0.384-0.264-0.912-0.456-1.367-0.456c-0.768,0-1.128,0.336-1.128,0.744
		c0,0.432,0.216,0.671,0.936,0.947l0.647,0.252c0.863,0.336,1.188,0.78,1.188,1.487c0,0.923-0.888,1.763-2.23,1.763
		c-1.056,0-1.523-0.335-1.523-0.983C153.605,39.08,153.641,38.888,153.713,38.756z"/>
	<path d="M159.088,38.3v-0.012c-0.54-0.216-1.079-0.839-1.079-1.667c0-1.343,1.079-2.375,2.387-2.375
		c0.491,0,1.091,0.204,1.295,0.396c0.216-0.204,0.672-0.384,1.056-0.384c0.204,0,0.396,0.036,0.516,0.072l-0.084,0.792
		c-0.384-0.084-0.815-0.132-1.283-0.132v0.012c0.396,0.3,0.684,0.815,0.684,1.307c0,1.392-1.14,2.339-2.435,2.339
		c-0.264,0-0.54-0.06-0.744-0.144c-0.18,0.108-0.384,0.36-0.384,0.576c0,0.36,0.3,0.552,0.768,0.552l1.68-0.012
		c1.007-0.012,1.571,0.456,1.571,1.343c0,1.139-1.26,2.098-2.927,2.098c-1.511,0-2.291-0.611-2.291-1.402
		c0-0.636,0.492-1.152,1.14-1.332v-0.012c-0.443-0.156-0.708-0.479-0.708-0.936C158.248,38.924,158.632,38.456,159.088,38.3z
		 M160.264,42.366c1.139,0,1.895-0.563,1.895-1.139c0-0.468-0.312-0.731-0.888-0.731h-1.931c-0.348,0.156-0.611,0.552-0.611,0.959
		C158.729,41.946,159.256,42.366,160.264,42.366z M161.523,36.345c0-1.007-0.563-1.487-1.199-1.487
		c-0.684,0-1.259,0.648-1.259,1.691c0,1.007,0.563,1.499,1.151,1.499C160.948,38.048,161.523,37.521,161.523,36.345z"/>
	<path d="M165.998,34.258c1.296,0,2.075,0.864,2.075,2.243c0,0.228,0,0.467-0.012,0.768h-3.538c0,1.343,0.779,2.123,1.774,2.123
		c0.588,0,1.235-0.204,1.691-0.516c0.024,0.06,0.048,0.192,0.048,0.312c0,0.54-0.791,1.043-2.062,1.043
		c-1.367,0-2.482-1.067-2.482-2.746C163.492,35.398,164.751,34.258,165.998,34.258z M167.115,36.645
		c0-1.175-0.504-1.739-1.212-1.739c-0.659,0-1.355,0.792-1.355,1.739H167.115z"/>
	<path d="M171.471,35.074h-1.403c-0.468,0-0.756,0.204-0.863,0.516l-0.108,0.3h-0.359l0.132-1.5l3.838,0.012l0.096,0.216
		l-2.914,4.761h1.475c0.624,0,0.852-0.156,0.996-0.456l0.191-0.396h0.324l-0.168,1.523h-4.09l-0.096-0.18L171.471,35.074z"/>
	<path d="M176.139,34.247c1.476,0,2.615,1.104,2.615,2.771c0,1.979-1.38,3.226-2.807,3.226c-1.451,0-2.627-1.02-2.627-2.771
		C173.321,35.506,174.664,34.247,176.139,34.247z M176.02,39.547c0.803,0,1.643-0.779,1.643-2.422c0-1.403-0.756-2.183-1.607-2.183
		c-0.827,0-1.643,0.828-1.643,2.411C174.412,38.804,175.168,39.547,176.02,39.547z"/>
	<path d="M179.644,39.847c0.312-0.12,0.636-0.359,0.636-0.647v-4.054l-0.779-0.324v-0.264c0.552-0.156,1.091-0.216,1.439-0.216
		h0.287v0.648c0.408-0.408,1.08-0.672,1.775-0.672c0.995,0,1.679,0.636,1.679,1.871v3.358l0.624,0.18v0.228
		c-0.324,0.132-0.743,0.204-1.26,0.204c-0.251,0-0.539-0.024-0.779-0.108v-0.204c0.3-0.132,0.432-0.359,0.432-0.792v-2.291
		c0-1.175-0.491-1.619-1.199-1.619c-0.491,0-0.972,0.168-1.235,0.372v4.03l0.672,0.18v0.228c-0.408,0.144-0.792,0.204-1.392,0.204
		c-0.287,0-0.623-0.024-0.899-0.108V39.847z"/>
	<path d="M188.847,34.271c0.288,0,0.636,0.036,0.827,0.084v-2.111l-0.815-0.324v-0.264c0.552-0.156,1.14-0.216,1.487-0.216h0.384
		l-0.072,0.672v6.872c0.084,0.24,0.229,0.492,0.456,0.696c-0.24,0.216-0.504,0.384-0.84,0.563c-0.239-0.192-0.455-0.468-0.575-0.72
		c-0.384,0.396-1.044,0.684-1.535,0.684c-1.212,0-2.183-1.007-2.183-2.603C185.981,35.446,187.287,34.271,188.847,34.271z
		 M189.687,39.044v-3.97c-0.204-0.072-0.552-0.132-0.876-0.132c-1.02,0-1.787,0.804-1.787,2.471c0,1.308,0.684,2.015,1.439,2.015
		C188.919,39.428,189.41,39.271,189.687,39.044z"/>
	<path d="M192.052,39.847c0.324-0.12,0.636-0.359,0.636-0.647v-6.956l-0.779-0.324v-0.264c0.54-0.156,1.031-0.216,1.439-0.216h0.384
		l-0.061,0.672v2.866c0.432-0.42,0.983-0.66,1.739-0.66c1.02,0,1.679,0.636,1.679,1.871v3.358l0.624,0.18v0.228
		c-0.336,0.132-0.756,0.204-1.271,0.204c-0.239,0-0.54-0.024-0.768-0.108v-0.204c0.288-0.132,0.432-0.359,0.432-0.792v-2.291
		c0-1.175-0.479-1.619-1.223-1.619c-0.468,0-0.936,0.168-1.212,0.372v4.03l0.672,0.18v0.228c-0.408,0.144-0.779,0.204-1.392,0.204
		c-0.275,0-0.623-0.024-0.899-0.108V39.847z"/>
	<path d="M200.894,34.258c1.296,0,2.075,0.864,2.075,2.243c0,0.228,0,0.467-0.012,0.768h-3.538c0,1.343,0.779,2.123,1.775,2.123
		c0.587,0,1.234-0.204,1.69-0.516c0.024,0.06,0.048,0.192,0.048,0.312c0,0.54-0.791,1.043-2.062,1.043
		c-1.367,0-2.482-1.067-2.482-2.746C198.388,35.398,199.647,34.258,200.894,34.258z M202.01,36.645c0-1.175-0.504-1.739-1.212-1.739
		c-0.659,0-1.355,0.792-1.355,1.739H202.01z"/>
	<path d="M203.776,39.847c0.324-0.12,0.636-0.359,0.636-0.647v-4.054l-0.768-0.324V34.57c0.54-0.156,1.092-0.228,1.428-0.228h0.384
		l-0.061,0.648v4.557l0.672,0.18v0.228c-0.408,0.144-0.779,0.204-1.392,0.204c-0.275,0-0.623-0.024-0.899-0.108V39.847z
		 M204.28,32.555c0-0.372,0.264-0.708,0.684-0.708c0.336,0,0.624,0.252,0.624,0.648c0,0.419-0.288,0.743-0.672,0.743
		C204.556,33.239,204.28,32.951,204.28,32.555z"/>
	<path d="M209.642,34.271c0.288,0,0.636,0.036,0.827,0.084v-2.111l-0.815-0.324v-0.264c0.552-0.156,1.14-0.216,1.487-0.216h0.384
		l-0.072,0.672v6.872c0.084,0.24,0.229,0.492,0.456,0.696c-0.24,0.216-0.504,0.384-0.84,0.563c-0.239-0.192-0.455-0.468-0.575-0.72
		c-0.384,0.396-1.044,0.684-1.535,0.684c-1.212,0-2.183-1.007-2.183-2.603C206.776,35.446,208.082,34.271,209.642,34.271z
		 M210.482,39.044v-3.97c-0.204-0.072-0.552-0.132-0.876-0.132c-1.02,0-1.787,0.804-1.787,2.471c0,1.308,0.684,2.015,1.439,2.015
		C209.714,39.428,210.205,39.271,210.482,39.044z"/>
	<path d="M47.933,47.258c1.295,0,2.075,0.863,2.075,2.243c0,0.228,0,0.468-0.012,0.768h-3.538c0,1.343,0.779,2.122,1.775,2.122
		c0.588,0,1.235-0.203,1.691-0.516c0.024,0.061,0.048,0.192,0.048,0.312c0,0.539-0.792,1.043-2.063,1.043
		c-1.367,0-2.483-1.067-2.483-2.746C45.427,48.398,46.686,47.258,47.933,47.258z M49.049,49.645c0-1.176-0.503-1.738-1.211-1.738
		c-0.659,0-1.355,0.791-1.355,1.738H49.049z"/>
	<path d="M50.814,52.847c0.312-0.12,0.636-0.359,0.636-0.647v-4.054l-0.779-0.323v-0.265c0.552-0.155,1.091-0.216,1.439-0.216h0.288
		v0.648c0.408-0.408,1.079-0.672,1.775-0.672c0.996,0,1.679,0.635,1.679,1.871v3.357l0.624,0.18v0.229
		c-0.324,0.132-0.744,0.203-1.259,0.203c-0.252,0-0.54-0.023-0.78-0.107v-0.204c0.3-0.132,0.432-0.359,0.432-0.792v-2.29
		c0-1.175-0.492-1.619-1.2-1.619c-0.492,0-0.971,0.168-1.235,0.372v4.029l0.672,0.18v0.229c-0.408,0.144-0.792,0.203-1.391,0.203
		c-0.288,0-0.624-0.023-0.9-0.107V52.847z"/>
	<path d="M59.119,52.835c0.444-0.132,0.671-0.348,0.708-0.708l0.528-6.129l-0.696-0.203v-0.348c0.54-0.072,1.199-0.084,1.631-0.084
		h0.432l1.883,5.816h0.012l1.823-5.816h0.516c0.432,0,0.972,0.012,1.451,0.084v0.348l-0.744,0.18l0.528,6.597l0.696,0.132v0.264
		c-0.288,0.132-0.696,0.204-1.164,0.204c-0.552,0-0.899-0.024-1.319-0.12v-0.229c0.504-0.119,0.732-0.419,0.708-0.91l-0.3-5.445
		h-0.024l-2.135,6.656l-0.468,0.06l-2.159-6.704l-0.012,0.012L60.642,52.5l0.78,0.204v0.264c-0.516,0.156-0.804,0.204-1.379,0.204
		c-0.276,0-0.624-0.048-0.923-0.12V52.835z"/>
	<path d="M68.634,52.847c0.324-0.12,0.636-0.359,0.636-0.647v-4.054l-0.768-0.323v-0.252c0.54-0.156,1.091-0.229,1.427-0.229h0.384
		l-0.06,0.648v4.557l0.672,0.18v0.229c-0.408,0.144-0.78,0.203-1.391,0.203c-0.276,0-0.624-0.023-0.9-0.107V52.847z M69.138,45.555
		c0-0.371,0.264-0.707,0.684-0.707c0.336,0,0.624,0.252,0.624,0.647c0,0.419-0.288,0.743-0.671,0.743
		C69.414,46.239,69.138,45.952,69.138,45.555z"/>
	<path d="M71.742,52.847c0.312-0.12,0.636-0.359,0.636-0.647v-6.956l-0.779-0.323v-0.265c0.54-0.155,1.103-0.216,1.439-0.216h0.384
		l-0.06,0.672v7.436l0.672,0.18v0.229c-0.408,0.144-0.792,0.203-1.391,0.203c-0.288,0-0.624-0.023-0.9-0.107V52.847z"/>
	<path d="M74.802,52.847c0.324-0.12,0.636-0.359,0.636-0.647v-4.054l-0.768-0.323v-0.252c0.54-0.156,1.091-0.229,1.427-0.229h0.384
		l-0.06,0.648v4.557l0.672,0.18v0.229c-0.408,0.144-0.78,0.203-1.391,0.203c-0.276,0-0.624-0.023-0.9-0.107V52.847z M75.306,45.555
		c0-0.371,0.264-0.707,0.684-0.707c0.336,0,0.624,0.252,0.624,0.647c0,0.419-0.288,0.743-0.671,0.743
		C75.582,46.239,75.306,45.952,75.306,45.555z"/>
	<path d="M80.309,47.258c1.295,0,2.075,0.863,2.075,2.243c0,0.228,0,0.468-0.012,0.768h-3.538c0,1.343,0.779,2.122,1.775,2.122
		c0.588,0,1.235-0.203,1.691-0.516c0.024,0.061,0.048,0.192,0.048,0.312c0,0.539-0.792,1.043-2.063,1.043
		c-1.367,0-2.483-1.067-2.483-2.746C77.802,48.398,79.061,47.258,80.309,47.258z M81.424,49.645c0-1.176-0.503-1.738-1.211-1.738
		c-0.66,0-1.355,0.791-1.355,1.738H81.424z"/>
	<path d="M83.706,48.146l-0.684-0.336v-0.252c0.54-0.155,1.007-0.228,1.343-0.228h0.396l-0.072,0.672v2.71
		c0,1.259,0.396,1.667,1.163,1.667c0.444,0,0.9-0.168,1.175-0.348v-3.886l-0.695-0.336v-0.252c0.552-0.155,1.02-0.228,1.355-0.228
		h0.396l-0.072,0.672v4.053c0.083,0.205,0.264,0.42,0.456,0.625c-0.18,0.191-0.516,0.419-0.815,0.562
		c-0.24-0.168-0.456-0.42-0.564-0.695c-0.3,0.275-0.983,0.636-1.727,0.636c-1.02,0-1.655-0.587-1.655-1.967V48.146z"/>
	<path d="M44.983,65.823c0.204-0.096,0.359-0.227,0.419-0.455l1.5-6.416l-0.648-0.145V58.52c0.312-0.084,0.875-0.145,1.235-0.145
		h0.396l1.055,5.721h0.012l1.979-5.721h0.3c0.3,0,0.803,0.023,1.151,0.096v0.288l-0.564,0.144l0.276,6.645l0.66,0.18v0.24
		c-0.36,0.12-0.636,0.18-0.983,0.18c-0.492,0-0.78-0.035-1.056-0.119v-0.205c0.228-0.107,0.372-0.251,0.372-0.623l-0.072-5.312
		h-0.012l-2.183,6.296l-0.36-0.024l-1.175-6.271h-0.012l-1.151,5.648l0.684,0.191v0.24c-0.336,0.132-0.624,0.18-0.996,0.18
		c-0.288,0-0.587-0.048-0.827-0.119V65.823z"/>
	<path d="M53.611,64.024l0.384-2.434l0.06-0.708l-0.72-0.228v-0.229c0.384-0.145,0.768-0.203,1.199-0.203
		c0.216,0,0.384,0.012,0.54,0.071l-0.54,3.526c-0.048,0.359-0.096,0.971-0.096,1.283c0,0.396,0.144,0.576,0.479,0.684v0.203
		c-0.251,0.108-0.54,0.168-0.899,0.168c-0.384,0-0.576-0.203-0.576-0.551C53.443,65.272,53.551,64.504,53.611,64.024z
		 M54.186,58.483c0-0.396,0.312-0.743,0.672-0.743c0.312,0,0.551,0.239,0.551,0.575c0,0.408-0.324,0.744-0.671,0.744
		C54.414,59.059,54.186,58.843,54.186,58.483z"/>
	<path d="M56.526,60.882l-0.732-0.228v-0.229c0.384-0.145,0.744-0.203,1.188-0.203c0.156,0,0.324,0.023,0.492,0.084l-0.384,1.834
		h0.012c0.552-1.223,1.343-1.942,2.159-1.942c0.528,0,0.948,0.372,0.948,1.103c0,0.385-0.108,0.996-0.18,1.512l-0.216,1.295
		c-0.036,0.276-0.096,0.744-0.096,0.996c0,0.396,0.192,0.551,0.564,0.623v0.204c-0.276,0.144-0.588,0.228-0.959,0.228
		c-0.372,0-0.588-0.203-0.588-0.551c0-0.301,0.084-0.888,0.144-1.271l0.228-1.379c0.06-0.373,0.12-0.889,0.12-1.212
		c0-0.54-0.24-0.72-0.527-0.72c-0.672,0-1.631,1.295-1.679,2.998l-0.072,2.027h-1.019L56.526,60.882z"/>
	<path d="M61.398,64.024l0.384-2.434l0.06-0.708l-0.72-0.228v-0.229c0.384-0.145,0.768-0.203,1.199-0.203
		c0.216,0,0.384,0.012,0.54,0.071l-0.54,3.526c-0.048,0.359-0.096,0.971-0.096,1.283c0,0.396,0.144,0.576,0.479,0.684v0.203
		c-0.251,0.108-0.54,0.168-0.899,0.168c-0.384,0-0.576-0.203-0.576-0.551C61.23,65.272,61.338,64.504,61.398,64.024z M61.974,58.483
		c0-0.396,0.312-0.743,0.672-0.743c0.312,0,0.552,0.239,0.552,0.575c0,0.408-0.324,0.744-0.672,0.744
		C62.202,59.059,61.974,58.843,61.974,58.483z"/>
	<path d="M63.295,65.02c0.336,0.324,0.731,0.504,1.175,0.504c0.564,0,1.02-0.324,1.02-0.828c0-0.396-0.156-0.659-0.744-1.188
		l-0.42-0.383c-0.551-0.504-0.708-0.828-0.708-1.355c0-0.792,0.756-1.584,1.859-1.584c0.875,0,1.308,0.264,1.308,0.648
		c0,0.215-0.084,0.467-0.216,0.623c-0.348-0.359-0.852-0.588-1.308-0.588c-0.528,0-0.803,0.288-0.803,0.672
		c0,0.348,0.144,0.552,0.743,1.092l0.456,0.408c0.576,0.516,0.768,0.863,0.768,1.391c0,0.947-0.959,1.775-2.219,1.775
		c-0.756,0-1.091-0.24-1.091-0.684C63.115,65.307,63.187,65.164,63.295,65.02z"/>
	<path d="M67.758,61.805l0.156-0.768c-0.264,0-0.419-0.012-0.671-0.035v-0.156c0.384-0.539,0.983-1.067,1.619-1.439h0.18
		l-0.204,0.983h0.348c0.336,0,0.6-0.024,0.923-0.083c0,0.516-0.288,0.742-1.043,0.742H68.73l-0.204,1.248
		c-0.096,0.576-0.24,1.571-0.24,2.051c0,0.791,0.396,1.14,0.923,1.14c0.192,0,0.312-0.024,0.492-0.084v0.216
		c-0.108,0.287-0.54,0.576-1.104,0.576c-0.792,0-1.211-0.528-1.211-1.476C67.386,63.977,67.566,62.729,67.758,61.805z"/>
	<path d="M72.641,60.174c0.827,0,1.283,0.42,1.283,1.235c0,1.415-1.439,2.278-2.867,2.278c0,1.451,0.384,1.8,1.08,1.8
		c0.432,0,1.055-0.252,1.307-0.601c0.048,0.049,0.12,0.156,0.12,0.289c0,0.575-0.768,1.055-1.739,1.055
		c-1.007,0-1.703-0.659-1.703-2.086C70.122,61.446,71.49,60.174,72.641,60.174z M72.965,61.625c0-0.563-0.228-0.779-0.576-0.779
		c-0.528,0-1.283,0.912-1.283,2.291C72.197,63.137,72.965,62.549,72.965,61.625z"/>
	<path d="M75.006,60.882l-0.731-0.228v-0.229c0.384-0.145,0.744-0.203,1.164-0.203c0.156,0,0.348,0.023,0.503,0.084l-0.36,1.738
		h0.012l0.636-1.055c0.312-0.517,0.635-0.756,1.007-0.756c0.264,0,0.396,0.168,0.396,0.443c0,0.191-0.048,0.432-0.132,0.623
		c-0.12-0.035-0.24-0.047-0.372-0.047c-0.756,0-1.511,0.827-1.619,3.046l-0.096,1.751h-0.995L75.006,60.882z"/>
	<path d="M77.874,64.024l0.384-2.434l0.06-0.708l-0.72-0.228v-0.229c0.384-0.145,0.768-0.203,1.199-0.203
		c0.216,0,0.384,0.012,0.54,0.071l-0.54,3.526c-0.048,0.359-0.096,0.971-0.096,1.283c0,0.396,0.144,0.576,0.479,0.684v0.203
		c-0.251,0.108-0.54,0.168-0.899,0.168c-0.384,0-0.576-0.203-0.576-0.551C77.706,65.272,77.814,64.504,77.874,64.024z
		 M78.449,58.483c0-0.396,0.312-0.743,0.672-0.743c0.312,0,0.552,0.239,0.552,0.575c0,0.408-0.324,0.744-0.672,0.744
		C78.677,59.059,78.449,58.843,78.449,58.483z"/>
	<path d="M82.552,60.174c0.828,0,1.284,0.42,1.284,1.235c0,1.415-1.439,2.278-2.867,2.278c0,1.451,0.384,1.8,1.08,1.8
		c0.432,0,1.055-0.252,1.307-0.601c0.048,0.049,0.12,0.156,0.12,0.289c0,0.575-0.768,1.055-1.739,1.055
		c-1.007,0-1.703-0.659-1.703-2.086C80.033,61.446,81.401,60.174,82.552,60.174z M82.876,61.625c0-0.563-0.228-0.779-0.576-0.779
		c-0.528,0-1.284,0.912-1.284,2.291C82.109,63.137,82.876,62.549,82.876,61.625z"/>
	<path d="M86.225,60.858l-0.516-0.203v-0.252c0.372-0.133,0.647-0.18,0.983-0.18c0.168,0,0.336,0.023,0.492,0.071l0.264,4.905h0.012
		c0.875-1.08,1.511-2.723,1.511-3.958c0-0.323-0.156-0.516-0.444-0.659V60.39c0.204-0.108,0.444-0.18,0.744-0.18
		c0.384,0,0.647,0.204,0.647,0.72c0,1.235-1.163,3.766-2.327,4.881c-0.228,0.204-0.42,0.336-0.636,0.444h-0.24L86.225,60.858z"/>
	<path d="M90.21,64.108c0-2.471,1.415-3.897,3.046-3.897c0.384,0,0.936,0.084,1.331,0.192l-0.42,2.099
		c-0.144,0.624-0.264,1.739-0.275,2.255c0,0.768,0.156,0.911,0.575,0.971v0.252c-0.312,0.108-0.695,0.18-1.067,0.18
		c-0.192,0-0.348-0.035-0.503-0.084l0.276-1.787H93.16c-0.468,1.188-1.223,1.932-1.859,1.932
		C90.738,66.219,90.21,65.488,90.21,64.108z M93.22,62.945l0.336-1.991c-0.168-0.047-0.444-0.071-0.624-0.071
		c-0.971,0-1.799,1.019-1.799,3.058c0,1.02,0.312,1.451,0.6,1.451C92.248,65.391,92.944,64.588,93.22,62.945z"/>
	<path d="M95.945,60.882l-0.732-0.228v-0.229c0.384-0.145,0.744-0.203,1.188-0.203c0.156,0,0.324,0.023,0.492,0.084l-0.384,1.834
		h0.012c0.552-1.223,1.343-1.942,2.159-1.942c0.528,0,0.948,0.372,0.948,1.103c0,0.385-0.108,0.996-0.18,1.512l-0.216,1.295
		c-0.036,0.276-0.096,0.744-0.096,0.996c0,0.396,0.192,0.551,0.564,0.623v0.204c-0.276,0.144-0.588,0.228-0.959,0.228
		c-0.372,0-0.588-0.203-0.588-0.551c0-0.301,0.084-0.888,0.144-1.271l0.228-1.379c0.06-0.373,0.12-0.889,0.12-1.212
		c0-0.54-0.24-0.72-0.527-0.72c-0.672,0-1.631,1.295-1.679,2.998l-0.072,2.027h-1.019L95.945,60.882z"/>
	<path d="M102.701,58.975l-0.564-0.203v-0.24c0.36-0.133,0.66-0.18,1.008-0.18c0.348,0,0.611,0.035,0.911,0.119v0.204
		c-0.204,0.06-0.312,0.204-0.3,0.348l0.695,5.841h0.013l2.123-5.9l-0.648-0.191v-0.24c0.372-0.12,0.744-0.18,1.164-0.18
		c0.228,0,0.491,0.035,0.695,0.119v0.204c-0.204,0.06-0.348,0.168-0.42,0.348l-2.794,7.112l-0.816,0.036L102.701,58.975z"/>
	<path d="M109.624,60.163c0.971,0,1.667,0.636,1.667,2.003c0,2.542-1.392,4.042-2.579,4.042c-0.936,0-1.715-0.72-1.715-2.135
		C106.997,61.542,108.305,60.163,109.624,60.163z M110.308,62.405c0-1.066-0.396-1.547-0.924-1.547
		c-0.647,0-1.439,1.104-1.439,2.795c0,1.367,0.456,1.883,0.983,1.883C109.504,65.536,110.308,64.54,110.308,62.405z"/>
	<path d="M112.278,64.024l0.839-5.948l-0.755-0.228V57.62c0.384-0.132,0.743-0.191,1.199-0.191c0.203,0,0.407,0.023,0.552,0.072
		l-0.9,6.284c-0.06,0.384-0.096,0.96-0.096,1.319c0,0.396,0.192,0.576,0.54,0.684v0.203c-0.252,0.108-0.563,0.168-0.924,0.168
		c-0.396,0-0.6-0.203-0.6-0.562C112.133,65.26,112.217,64.48,112.278,64.024z"/>
	<path d="M114.964,62.92l0.492-4.845l-0.744-0.228V57.62c0.372-0.132,0.731-0.191,1.224-0.191c0.191,0,0.384,0.023,0.54,0.072
		l-0.696,5.265h0.012l0.672-0.528c0.504-0.395,1.128-1.354,1.308-2.098c0.588,0,0.804,0.155,0.804,0.395
		c0,0.457-0.756,1.344-1.644,1.943l-0.516,0.359l1.512,2.315c0.203,0.3,0.432,0.491,0.779,0.647v0.204
		c-0.229,0.132-0.42,0.18-0.744,0.18c-0.359,0-0.684-0.18-0.995-0.755l-1.235-2.279h-0.012l-0.204,2.902h-1.031L114.964,62.92z"/>
	<path d="M118.566,65.02c0.335,0.324,0.731,0.504,1.175,0.504c0.563,0,1.02-0.324,1.02-0.828c0-0.396-0.156-0.659-0.743-1.188
		l-0.42-0.383c-0.552-0.504-0.708-0.828-0.708-1.355c0-0.792,0.756-1.584,1.859-1.584c0.875,0,1.307,0.264,1.307,0.648
		c0,0.215-0.084,0.467-0.216,0.623c-0.348-0.359-0.852-0.588-1.307-0.588c-0.528,0-0.804,0.288-0.804,0.672
		c0,0.348,0.144,0.552,0.743,1.092l0.456,0.408c0.575,0.516,0.768,0.863,0.768,1.391c0,0.947-0.96,1.775-2.219,1.775
		c-0.756,0-1.092-0.24-1.092-0.684C118.385,65.307,118.457,65.164,118.566,65.02z"/>
	<path d="M122.369,67.67c0,0.468,0.371,0.791,1.043,0.791c0.876,0,1.571-0.646,1.739-2.039l0.228-2.11h-0.012
		c-0.456,1.14-1.224,1.896-1.859,1.896c-0.527,0-1.091-0.684-1.091-2.135c0-2.303,1.354-3.862,2.986-3.862
		c0.468,0,0.983,0.084,1.391,0.192l-0.468,2.303c-0.107,0.575-0.18,1.799-0.18,2.422c0,2.734-1.343,3.898-2.926,3.898
		c-1.08,0-1.716-0.468-1.716-1.104c0-0.576,0.588-1.031,1.188-1.031C122.453,67.143,122.369,67.382,122.369,67.67z M125.44,62.861
		l0.275-1.919c-0.191-0.048-0.396-0.06-0.6-0.06c-0.924,0-1.775,0.995-1.775,3.058c0,1.031,0.312,1.451,0.612,1.451
		C124.456,65.391,125.199,64.588,125.44,62.861z"/>
	<path d="M129.831,60.174c0.827,0,1.283,0.42,1.283,1.235c0,1.415-1.439,2.278-2.866,2.278c0,1.451,0.384,1.8,1.079,1.8
		c0.432,0,1.056-0.252,1.308-0.601c0.048,0.049,0.119,0.156,0.119,0.289c0,0.575-0.768,1.055-1.738,1.055
		c-1.008,0-1.703-0.659-1.703-2.086C127.313,61.446,128.68,60.174,129.831,60.174z M130.155,61.625c0-0.563-0.228-0.779-0.575-0.779
		c-0.528,0-1.283,0.912-1.283,2.291C129.387,63.137,130.155,62.549,130.155,61.625z"/>
	<path d="M134.007,61.122h-1.283c-0.528,0-0.792,0.133-0.9,0.372l-0.096,0.204l-0.275-0.048c0-0.84,0.384-1.392,1.031-1.392
		c0.852,0,1.499,0.084,1.811,0.084c0.3,0,0.624-0.023,0.948-0.072c-0.972,1.848-1.968,3.383-3.131,5.037h1.523
		c0.647,0,0.875-0.107,0.995-0.359l0.12-0.252l0.24,0.024c0,1.019-0.396,1.476-1.283,1.476c-0.528,0-1.548-0.121-2.016-0.121
		c-0.275,0-0.647,0.024-0.888,0.072L134.007,61.122z"/>
	<path d="M137.967,60.163c0.971,0,1.667,0.636,1.667,2.003c0,2.542-1.392,4.042-2.579,4.042c-0.936,0-1.715-0.72-1.715-2.135
		C135.34,61.542,136.648,60.163,137.967,60.163z M138.651,62.405c0-1.066-0.396-1.547-0.924-1.547c-0.647,0-1.439,1.104-1.439,2.795
		c0,1.367,0.456,1.883,0.983,1.883C137.847,65.536,138.651,64.54,138.651,62.405z"/>
	<path d="M141.039,60.882l-0.731-0.228v-0.229c0.384-0.145,0.744-0.203,1.188-0.203c0.156,0,0.324,0.023,0.492,0.084l-0.384,1.834
		h0.012c0.552-1.223,1.343-1.942,2.159-1.942c0.527,0,0.947,0.372,0.947,1.103c0,0.385-0.108,0.996-0.18,1.512l-0.217,1.295
		c-0.035,0.276-0.096,0.744-0.096,0.996c0,0.396,0.192,0.551,0.563,0.623v0.204c-0.275,0.144-0.587,0.228-0.959,0.228
		s-0.588-0.203-0.588-0.551c0-0.301,0.084-0.888,0.145-1.271l0.228-1.379c0.06-0.373,0.12-0.889,0.12-1.212
		c0-0.54-0.24-0.72-0.528-0.72c-0.671,0-1.631,1.295-1.679,2.998l-0.072,2.027h-1.02L141.039,60.882z"/>
	<path d="M145.564,64.108c0-2.41,1.38-3.897,2.986-3.897c0.145,0,0.324,0.013,0.456,0.024l0.348-2.159l-0.791-0.228V57.62
		c0.371-0.132,0.755-0.191,1.271-0.191c0.203,0,0.396,0.023,0.551,0.072l-0.875,4.965c-0.084,0.504-0.264,1.835-0.264,2.291
		c0,0.779,0.168,0.911,0.575,0.971v0.252c-0.371,0.12-0.672,0.18-1.067,0.18c-0.204,0-0.359-0.035-0.504-0.084l0.3-1.811h-0.012
		c-0.443,1.115-1.199,1.955-1.883,1.955C146.115,66.219,145.564,65.512,145.564,64.108z M148.574,62.933l0.336-1.991
		c-0.156-0.035-0.384-0.06-0.576-0.06c-0.995,0-1.847,0.935-1.847,3.058c0,0.996,0.288,1.451,0.6,1.451
		C147.567,65.391,148.323,64.612,148.574,62.933z"/>
	<path d="M151.168,62.153l0.396-4.077l-0.743-0.228V57.62c0.384-0.132,0.815-0.191,1.224-0.191c0.203,0,0.396,0.023,0.551,0.072
		l-0.635,4.389h0.012c0.491-1.031,1.235-1.69,2.015-1.69c0.588,0,0.947,0.443,0.947,1.103c0,0.396-0.096,1.008-0.18,1.512
		l-0.216,1.26c-0.048,0.287-0.096,0.779-0.096,1.031c0,0.396,0.18,0.551,0.563,0.623v0.204c-0.275,0.144-0.588,0.228-0.959,0.228
		c-0.372,0-0.588-0.203-0.588-0.551c0-0.301,0.096-0.924,0.155-1.32l0.216-1.33c0.061-0.36,0.12-0.936,0.12-1.212
		c0-0.528-0.228-0.72-0.539-0.72c-0.6,0-1.476,1.02-1.596,2.734l-0.144,2.291h-1.008L151.168,62.153z"/>
	<path d="M158.307,60.174c0.827,0,1.283,0.42,1.283,1.235c0,1.415-1.439,2.278-2.866,2.278c0,1.451,0.384,1.8,1.079,1.8
		c0.432,0,1.056-0.252,1.308-0.601c0.048,0.049,0.119,0.156,0.119,0.289c0,0.575-0.768,1.055-1.738,1.055
		c-1.008,0-1.703-0.659-1.703-2.086C155.788,61.446,157.156,60.174,158.307,60.174z M158.63,61.625c0-0.563-0.228-0.779-0.575-0.779
		c-0.528,0-1.283,0.912-1.283,2.291C157.863,63.137,158.63,62.549,158.63,61.625z"/>
	<path d="M160.264,64.024l0.384-2.434l0.06-0.708l-0.72-0.228v-0.229c0.384-0.145,0.768-0.203,1.199-0.203
		c0.216,0,0.384,0.012,0.54,0.071l-0.54,3.526c-0.048,0.359-0.096,0.971-0.096,1.283c0,0.396,0.144,0.576,0.479,0.684v0.203
		c-0.252,0.108-0.539,0.168-0.899,0.168c-0.384,0-0.575-0.203-0.575-0.551C160.096,65.272,160.203,64.504,160.264,64.024z
		 M160.839,58.483c0-0.396,0.312-0.743,0.672-0.743c0.312,0,0.552,0.239,0.552,0.575c0,0.408-0.324,0.744-0.672,0.744
		C161.067,59.059,160.839,58.843,160.839,58.483z"/>
	<path d="M162.411,64.108c0-2.41,1.38-3.897,2.986-3.897c0.145,0,0.324,0.013,0.456,0.024l0.348-2.159l-0.791-0.228V57.62
		c0.371-0.132,0.755-0.191,1.271-0.191c0.203,0,0.396,0.023,0.551,0.072l-0.875,4.965c-0.084,0.504-0.264,1.835-0.264,2.291
		c0,0.779,0.168,0.911,0.575,0.971v0.252c-0.371,0.12-0.672,0.18-1.067,0.18c-0.204,0-0.359-0.035-0.504-0.084l0.3-1.811h-0.012
		c-0.443,1.115-1.199,1.955-1.883,1.955C162.963,66.219,162.411,65.512,162.411,64.108z M165.422,62.933l0.336-1.991
		c-0.156-0.035-0.384-0.06-0.576-0.06c-0.995,0-1.847,0.935-1.847,3.058c0,0.996,0.288,1.451,0.6,1.451
		C164.414,65.391,165.17,64.612,165.422,62.933z"/>
	<path d="M168.495,64.756c0.324,0,0.612,0.264,0.612,0.731c0,0.923-0.888,1.967-1.523,2.122l-0.336-0.071
		c0.527-0.516,0.899-1.259,0.899-1.775l-0.443-0.503C167.92,64.959,168.232,64.756,168.495,64.756z"/>
	<path d="M45.87,71.975l-0.611-0.203v-0.24c0.359-0.133,0.684-0.18,1.019-0.18c0.348,0,0.636,0.023,0.948,0.119v0.204
		c-0.204,0.06-0.312,0.216-0.3,0.348l0.563,5.565h0.012l1.943-6.152l1.104-0.061l0.479,6.429h0.012l1.847-5.841l-0.636-0.191v-0.24
		c0.36-0.12,0.744-0.18,1.151-0.18c0.24,0,0.48,0.035,0.696,0.119v0.204c-0.204,0.06-0.36,0.18-0.42,0.348l-2.542,7.112
		l-0.852,0.036l-0.552-6.753H49.72l-2.099,6.717l-0.803,0.036L45.87,71.975z"/>
	<path d="M55.925,73.174c0.828,0,1.284,0.42,1.284,1.235c0,1.415-1.439,2.279-2.867,2.279c0,1.451,0.384,1.799,1.08,1.799
		c0.432,0,1.055-0.252,1.307-0.6c0.048,0.048,0.12,0.155,0.12,0.287c0,0.576-0.768,1.056-1.739,1.056
		c-1.007,0-1.703-0.659-1.703-2.087C53.406,74.446,54.774,73.174,55.925,73.174z M56.249,74.625c0-0.563-0.228-0.779-0.576-0.779
		c-0.528,0-1.284,0.911-1.284,2.291C55.482,76.137,56.249,75.549,56.249,74.625z"/>
	<path d="M57.882,77.024l0.84-5.948l-0.756-0.228V70.62c0.384-0.132,0.744-0.191,1.199-0.191c0.204,0,0.408,0.023,0.552,0.072
		l-0.899,6.284c-0.06,0.384-0.096,0.959-0.096,1.319c0,0.396,0.191,0.575,0.54,0.684v0.204c-0.252,0.107-0.564,0.168-0.923,0.168
		c-0.396,0-0.6-0.204-0.6-0.564C57.738,78.259,57.822,77.48,57.882,77.024z"/>
	<path d="M62.597,74.122h-1.283c-0.528,0-0.792,0.133-0.899,0.372l-0.096,0.204l-0.276-0.048c0-0.84,0.384-1.392,1.032-1.392
		c0.852,0,1.499,0.084,1.811,0.084c0.3,0,0.624-0.023,0.947-0.072c-0.971,1.848-1.967,3.383-3.13,5.038h1.523
		c0.647,0,0.875-0.108,0.995-0.36l0.12-0.252l0.24,0.024c0,1.02-0.396,1.475-1.283,1.475c-0.528,0-1.547-0.119-2.015-0.119
		c-0.276,0-0.648,0.023-0.888,0.071L62.597,74.122z"/>
	<path d="M64.254,77.024l0.384-2.435l0.06-0.707l-0.72-0.229v-0.228c0.384-0.144,0.768-0.204,1.199-0.204
		c0.216,0,0.384,0.013,0.54,0.072l-0.54,3.526c-0.048,0.359-0.096,0.971-0.096,1.283c0,0.396,0.144,0.575,0.479,0.684v0.204
		c-0.251,0.107-0.54,0.168-0.899,0.168c-0.384,0-0.576-0.204-0.576-0.552C64.086,78.272,64.194,77.504,64.254,77.024z M64.83,71.483
		c0-0.396,0.312-0.743,0.672-0.743c0.312,0,0.551,0.239,0.551,0.575c0,0.408-0.324,0.744-0.671,0.744
		C65.058,72.059,64.83,71.843,64.83,71.483z"/>
	<path d="M67.074,74.602l0.036-0.72l-0.731-0.229v-0.228c0.384-0.144,0.779-0.204,1.187-0.204c0.192,0,0.384,0.024,0.54,0.072
		l-0.768,6.477c-0.204,1.631-0.875,2.242-1.667,2.242c-0.312,0-0.672-0.132-0.828-0.323v-0.216c0.792,0,1.427-0.456,1.571-1.655
		L67.074,74.602z M67.218,71.483c0-0.396,0.312-0.743,0.672-0.743c0.3,0,0.551,0.239,0.551,0.575c0,0.408-0.324,0.744-0.671,0.744
		C67.446,72.059,67.218,71.843,67.218,71.483z"/>
	<path d="M69.594,73.882l-0.731-0.229v-0.228c0.384-0.144,0.743-0.204,1.187-0.204c0.156,0,0.324,0.024,0.492,0.084l-0.384,1.835
		h0.012c0.552-1.223,1.343-1.942,2.159-1.942c0.528,0,0.947,0.371,0.947,1.104c0,0.384-0.108,0.995-0.18,1.511l-0.216,1.295
		c-0.036,0.276-0.096,0.744-0.096,0.996c0,0.396,0.192,0.552,0.564,0.623v0.204c-0.276,0.145-0.588,0.229-0.959,0.229
		c-0.372,0-0.588-0.204-0.588-0.552c0-0.3,0.084-0.888,0.144-1.271l0.228-1.38c0.06-0.371,0.12-0.887,0.12-1.211
		c0-0.54-0.24-0.72-0.527-0.72c-0.672,0-1.631,1.296-1.679,2.998l-0.072,2.027h-1.02L69.594,73.882z"/>
	<path d="M78.412,73.174c0.828,0,1.284,0.42,1.284,1.235c0,1.415-1.439,2.279-2.867,2.279c0,1.451,0.384,1.799,1.08,1.799
		c0.432,0,1.055-0.252,1.307-0.6c0.048,0.048,0.12,0.155,0.12,0.287c0,0.576-0.768,1.056-1.739,1.056
		c-1.007,0-1.703-0.659-1.703-2.087C75.894,74.446,77.261,73.174,78.412,73.174z M78.737,74.625c0-0.563-0.228-0.779-0.576-0.779
		c-0.528,0-1.284,0.911-1.284,2.291C77.969,76.137,78.737,75.549,78.737,74.625z"/>
	<path d="M80.789,73.882l-0.731-0.229v-0.228c0.384-0.144,0.743-0.204,1.187-0.204c0.156,0,0.324,0.024,0.492,0.084l-0.384,1.835
		h0.012c0.552-1.223,1.343-1.942,2.159-1.942c0.528,0,0.947,0.371,0.947,1.104c0,0.384-0.108,0.995-0.18,1.511l-0.216,1.295
		c-0.036,0.276-0.096,0.744-0.096,0.996c0,0.396,0.192,0.552,0.564,0.623v0.204c-0.276,0.145-0.588,0.229-0.959,0.229
		c-0.372,0-0.588-0.204-0.588-0.552c0-0.3,0.084-0.888,0.144-1.271l0.228-1.38c0.06-0.371,0.12-0.887,0.12-1.211
		c0-0.54-0.24-0.72-0.527-0.72c-0.672,0-1.631,1.296-1.679,2.998l-0.072,2.027h-1.02L80.789,73.882z"/>
	<path d="M86.922,77.396h0.396l0.036,0.264c0.108,0.684,0.419,0.888,1.211,0.888c0.815,0,1.463-0.479,1.463-1.235
		c0-0.504-0.204-0.875-1.02-1.655l-0.792-0.755c-0.552-0.528-0.731-0.924-0.731-1.512c0-1.115,0.996-2.075,2.351-2.075
		c0.684,0,1.164,0.097,1.547,0.289l-0.144,1.498h-0.348l-0.024-0.216c-0.072-0.623-0.42-0.911-1.14-0.911
		c-0.839,0-1.319,0.504-1.319,1.176c0,0.432,0.144,0.684,0.72,1.199l0.792,0.707c0.852,0.756,1.115,1.235,1.115,1.883
		c0,1.319-1.259,2.268-2.603,2.268c-0.624,0-1.223-0.097-1.655-0.265L86.922,77.396z"/>
	<path d="M92.597,80.659c-0.072,0.671,0.084,0.887,0.42,0.983v0.204c-0.312,0.107-0.576,0.144-0.936,0.144
		c-0.204,0-0.432-0.024-0.6-0.072l0.216-1.007l0.936-7.041l-0.731-0.228v-0.228c0.384-0.132,0.792-0.192,1.187-0.192
		c0.156,0,0.336,0.024,0.48,0.072l-0.312,1.847h0.012c0.408-1.175,1.199-1.979,1.811-1.979c0.576,0,1.104,0.647,1.104,1.991
		c0,2.662-1.403,3.993-2.615,3.993c-0.324,0-0.528-0.048-0.804-0.204L92.597,80.659z M93.556,78.547c0.84,0,1.703-0.995,1.703-2.998
		c0-1.176-0.288-1.56-0.6-1.56c-0.492,0-1.283,0.948-1.511,2.663l-0.276,1.822C93.113,78.536,93.341,78.547,93.556,78.547z"/>
	<path d="M99.472,73.163c0.972,0,1.667,0.636,1.667,2.003c0,2.542-1.391,4.042-2.579,4.042c-0.935,0-1.715-0.72-1.715-2.135
		C96.845,74.542,98.153,73.163,99.472,73.163z M100.156,75.405c0-1.067-0.396-1.547-0.923-1.547c-0.648,0-1.439,1.104-1.439,2.795
		c0,1.367,0.456,1.883,0.984,1.883C99.352,78.536,100.156,77.541,100.156,75.405z"/>
	<path d="M102.533,73.882l-0.731-0.229v-0.228c0.384-0.144,0.744-0.204,1.164-0.204c0.155,0,0.348,0.024,0.504,0.084l-0.36,1.739
		h0.012l0.636-1.056c0.312-0.516,0.636-0.755,1.008-0.755c0.264,0,0.396,0.168,0.396,0.443c0,0.191-0.048,0.432-0.132,0.624
		c-0.12-0.036-0.239-0.048-0.372-0.048c-0.755,0-1.511,0.827-1.619,3.046l-0.096,1.751h-0.995L102.533,73.882z"/>
	<path d="M105.677,74.805l0.156-0.768c-0.264,0-0.42-0.012-0.672-0.035v-0.156c0.384-0.54,0.983-1.067,1.619-1.439h0.18
		l-0.204,0.983h0.349c0.335,0,0.6-0.023,0.923-0.084c0,0.516-0.288,0.744-1.043,0.744h-0.336l-0.204,1.247
		c-0.096,0.575-0.24,1.571-0.24,2.051c0,0.792,0.396,1.14,0.924,1.14c0.192,0,0.312-0.024,0.492-0.084v0.216
		c-0.108,0.288-0.54,0.575-1.104,0.575c-0.792,0-1.212-0.527-1.212-1.475C105.305,76.976,105.486,75.729,105.677,74.805z"/>
</g>
</svg>
