<svg id="Layer_1" data-name="Layer 1" xmlns="http://www.w3.org/2000/svg" viewBox="0 0 154.5 104.75"><defs><style>.cls-1{fill:#3b8734;}.cls-2{fill:#275a38;}.cls-3{fill:#e0700d;}</style></defs><title>Artboard 1</title><circle class="cls-1" cx="77.27" cy="32.84" r="32.28"/><circle class="cls-2" cx="77.27" cy="32.84" r="22.23"/><circle class="cls-3" cx="77.27" cy="32.84" r="11.74" transform="translate(-1.2 2.99) rotate(-2.2)"/><path class="cls-2" d="M1.41,91.54a7.85,7.85,0,0,1,2.31-6.12A7.77,7.77,0,0,1,9.13,83.3a7.48,7.48,0,0,1,5.2,2q2.15,1.94,2.15,6a7.91,7.91,0,0,1-2.29,6.12,7.63,7.63,0,0,1-5.37,2.11,7.6,7.6,0,0,1-5.24-1.94Q1.4,95.59,1.41,91.54Zm3.27-.27c0,2,.42,3.35,1.26,4.18A4.15,4.15,0,0,0,9,96.7a4.22,4.22,0,0,0,2.92-1.23,5.13,5.13,0,0,0,1.34-4A5.83,5.83,0,0,0,12,87.32a4.1,4.1,0,0,0-3-1.26A4.25,4.25,0,0,0,6,87.3,5.22,5.22,0,0,0,4.68,91.27Z"/><path class="cls-2" d="M33.38,99.26V92.14a2.32,2.32,0,0,0-.53-1.7,2.07,2.07,0,0,0-1.51-.51,6.17,6.17,0,0,0-1,.07,5,5,0,0,0-1,.31v9h-3V92.14a2.28,2.28,0,0,0-.54-1.71,2.14,2.14,0,0,0-1.5-.5,6.24,6.24,0,0,0-1.05.08,7.21,7.21,0,0,0-1,.3v9H19.27V87.43l2.85-.12v.89a7.22,7.22,0,0,1,1.53-.76,5.22,5.22,0,0,1,1.59-.22,4.86,4.86,0,0,1,1.92.33,3.49,3.49,0,0,1,1.32,1,7.17,7.17,0,0,1,1.74-1,5.73,5.73,0,0,1,2-.34,4,4,0,0,1,3,1.1,4.35,4.35,0,0,1,1.08,3.17v7.77Z"/><path class="cls-2" d="M41.49,96.07a.7.7,0,0,0,.35.61,2.26,2.26,0,0,0,1.21.23l2.76,0a4.61,4.61,0,0,1,2.93.78,2.59,2.59,0,0,1,.91,2.12,3.63,3.63,0,0,1-1.51,2.92,7.72,7.72,0,0,1-4.8,1.21,7.12,7.12,0,0,1-3.85-.83,2.52,2.52,0,0,1-1.26-2.2,2.49,2.49,0,0,1,.51-1.52,3,3,0,0,1,1.41-1v-.07a1.53,1.53,0,0,1-.76-.6,1.76,1.76,0,0,1-.3-1,1.71,1.71,0,0,1,.39-1.08,2.26,2.26,0,0,1,1.05-.77v-.07a3.47,3.47,0,0,1-1.36-1.19,3.42,3.42,0,0,1-.51-1.91,4.08,4.08,0,0,1,1.4-3.29,5.54,5.54,0,0,1,3.66-1.17,5.86,5.86,0,0,1,1,.07c.31,0,.61.11.92.19h3.88V89.4H47.61v.07a2.31,2.31,0,0,1,.71.79,2.65,2.65,0,0,1,.32,1.37,3.49,3.49,0,0,1-1.32,2.91,6.13,6.13,0,0,1-3.81,1,6.81,6.81,0,0,1-.78,0,5.7,5.7,0,0,1-.76-.14.78.78,0,0,0-.35.3A.67.67,0,0,0,41.49,96.07Zm-.62,4.26a1.24,1.24,0,0,0,.67,1.11,3.93,3.93,0,0,0,2,.42,5.88,5.88,0,0,0,2.66-.44,1.27,1.27,0,0,0,.8-1.09.94.94,0,0,0-.38-.79,2.18,2.18,0,0,0-1.18-.3l-4-.12a1.49,1.49,0,0,0-.45.52A1.52,1.52,0,0,0,40.87,100.33Zm2.8-6.68a2.45,2.45,0,0,0,1.7-.55A2.29,2.29,0,0,0,46,91.37a2.09,2.09,0,0,0-.56-1.57,2.81,2.81,0,0,0-3.34,0,2.17,2.17,0,0,0-.64,1.72A2,2,0,0,0,42,93.13,2.41,2.41,0,0,0,43.67,93.65Z"/><path class="cls-2" d="M51,93.34a6.18,6.18,0,0,1,1.6-4.61,5.24,5.24,0,0,1,3.85-1.59,4.74,4.74,0,0,1,3.48,1.3A4.85,4.85,0,0,1,61.19,92c0,.4,0,.79,0,1.18s0,.72-.07,1H53.8A3.23,3.23,0,0,0,55,96.26a4,4,0,0,0,2.48.68,10.25,10.25,0,0,0,1.77-.14,12.73,12.73,0,0,0,1.63-.39v2.4a17.51,17.51,0,0,1-1.77.44,10.52,10.52,0,0,1-2,.16,6.34,6.34,0,0,1-4.43-1.5A5.92,5.92,0,0,1,51,93.34Zm2.83-1.28h4.56a3,3,0,0,0-.59-1.92,1.9,1.9,0,0,0-1.57-.74,2.12,2.12,0,0,0-1.57.68A3.41,3.41,0,0,0,53.8,92.06Z"/><path class="cls-2" d="M65.87,99.26l-3.72-11.9h3.39L68,97h.19l2.4-9.62h3.08L70,99.26Z"/><path class="cls-2" d="M75.07,84.12a1.71,1.71,0,0,1,.44-1.18,1.62,1.62,0,0,1,1.26-.5,1.64,1.64,0,0,1,1.26.48,1.68,1.68,0,0,1,.44,1.2A1.63,1.63,0,0,1,78,85.26a1.61,1.61,0,0,1-1.26.49,1.64,1.64,0,0,1-1.26-.47A1.6,1.6,0,0,1,75.07,84.12Zm3.19,3.19v12h-3V87.43Z"/><path class="cls-2" d="M88.7,99.26V92.09a2.21,2.21,0,0,0-.53-1.67,2.16,2.16,0,0,0-1.54-.49,7,7,0,0,0-1.08.08,7.5,7.5,0,0,0-1.08.3v9h-3V87.43l2.86-.12v.89a5.79,5.79,0,0,1,1.51-.76,5.64,5.64,0,0,1,1.63-.22,4.12,4.12,0,0,1,3,1.09,4.27,4.27,0,0,1,1.1,3.15v7.8Z"/><path class="cls-2" d="M96.81,96.07a.7.7,0,0,0,.35.61,2.23,2.23,0,0,0,1.21.23l2.76,0a4.61,4.61,0,0,1,2.93.78,2.59,2.59,0,0,1,.91,2.12,3.63,3.63,0,0,1-1.51,2.92,7.72,7.72,0,0,1-4.8,1.21,7.12,7.12,0,0,1-3.85-.83,2.52,2.52,0,0,1-1.26-2.2,2.49,2.49,0,0,1,.51-1.52,3,3,0,0,1,1.41-1v-.07a1.53,1.53,0,0,1-.76-.6,1.81,1.81,0,0,1,.08-2.11,2.34,2.34,0,0,1,1.06-.77v-.07a3.47,3.47,0,0,1-1.36-1.19A3.42,3.42,0,0,1,94,91.68a4.08,4.08,0,0,1,1.4-3.29A5.54,5.54,0,0,1,99,87.22a5.86,5.86,0,0,1,1,.07,9.18,9.18,0,0,1,.91.19h3.89V89.4h-1.87v.07a2.31,2.31,0,0,1,.71.79,2.75,2.75,0,0,1,.32,1.37,3.49,3.49,0,0,1-1.32,2.91,6.13,6.13,0,0,1-3.81,1,6.81,6.81,0,0,1-.78,0,5.7,5.7,0,0,1-.76-.14.78.78,0,0,0-.35.3A.67.67,0,0,0,96.81,96.07Zm-.62,4.26a1.24,1.24,0,0,0,.67,1.11,3.93,3.93,0,0,0,2,.42,5.88,5.88,0,0,0,2.66-.44,1.25,1.25,0,0,0,.79-1.09.93.93,0,0,0-.37-.79,2.19,2.19,0,0,0-1.19-.3l-4-.12a1.49,1.49,0,0,0-.45.52A1.52,1.52,0,0,0,96.19,100.33ZM99,93.65a2.45,2.45,0,0,0,1.7-.55,2.29,2.29,0,0,0,.58-1.73,2.09,2.09,0,0,0-.55-1.57,2.34,2.34,0,0,0-1.7-.54,2.39,2.39,0,0,0-1.65.56,2.2,2.2,0,0,0-.63,1.72,2,2,0,0,0,.59,1.59A2.39,2.39,0,0,0,99,93.65Z"/><path class="cls-2" d="M106.29,99.1V96.55a11.64,11.64,0,0,0,1.73.31,13.63,13.63,0,0,0,1.65.1,3.43,3.43,0,0,0,1.72-.3.9.9,0,0,0,.47-.78.88.88,0,0,0-.3-.68,3.13,3.13,0,0,0-1.21-.54l-1.52-.46a3.88,3.88,0,0,1-1.89-1.14,3,3,0,0,1-.67-2,3.33,3.33,0,0,1,1.34-2.73,5.93,5.93,0,0,1,3.77-1.06c.54,0,1.07,0,1.57.07s1,.1,1.36.17l-.17,2.47q-.8-.12-1.47-.18c-.46,0-.93-.06-1.42-.06a3,3,0,0,0-1.55.29.81.81,0,0,0-.48.69.92.92,0,0,0,.22.64,2.58,2.58,0,0,0,1.09.49l1.41.38a4.22,4.22,0,0,1,2.21,1.24,3.05,3.05,0,0,1,.66,2,3.49,3.49,0,0,1-1.36,2.93,5.84,5.84,0,0,1-3.7,1.06c-.66,0-1.29,0-1.89-.07A10.23,10.23,0,0,1,106.29,99.1Z"/><path class="cls-2" d="M133.43,87.36l-3.07,11.9h-4l-1.73-6.5h-.07l-2,6.5h-3.81l-3-11.9h3.39l1.8,9.6H121l2.4-7.39-.6-2.21h2.92l2.62,9.6h.12l1.87-9.6Z"/><path class="cls-2" d="M134.49,93.34a6.18,6.18,0,0,1,1.6-4.61,5.24,5.24,0,0,1,3.85-1.59,4.74,4.74,0,0,1,3.48,1.3A4.85,4.85,0,0,1,144.71,92c0,.4,0,.79,0,1.18s0,.72-.07,1h-7.3a3.23,3.23,0,0,0,1.15,2.08,4,4,0,0,0,2.48.68,10.25,10.25,0,0,0,1.77-.14,12.73,12.73,0,0,0,1.63-.39v2.4a17.51,17.51,0,0,1-1.77.44,10.52,10.52,0,0,1-2,.16,6.34,6.34,0,0,1-4.43-1.5A5.92,5.92,0,0,1,134.49,93.34Zm2.83-1.28h4.56a3,3,0,0,0-.59-1.92,1.9,1.9,0,0,0-1.57-.74,2.12,2.12,0,0,0-1.57.68A3.41,3.41,0,0,0,137.32,92.06Z"/><path class="cls-2" d="M146.25,89.59V87.36h1.44V85.18l2.95-.24v2.42h3v2.23h-3V95a2,2,0,0,0,.49,1.45,1.8,1.8,0,0,0,1.29.46,5.44,5.44,0,0,0,.73,0c.22,0,.48-.09.78-.17v2.47a8.17,8.17,0,0,1-1.16.23,11.24,11.24,0,0,1-1.25.06,3.84,3.84,0,0,1-2.78-1,4,4,0,0,1-1.05-3V89.59Z"/></svg>