<svg id="Layer_1" data-name="Layer 1" xmlns="http://www.w3.org/2000/svg" viewBox="0 0 29 43.5"><defs><style>.cls-1{fill:#fff;}.cls-2{fill:#e0700d;}</style></defs><title>Artboard 1</title><path class="cls-1" d="M14.25,2.15A12.79,12.79,0,0,0,1.18,15.23c0,4.29,2.06,7.48,4.24,10.85a43.48,43.48,0,0,1,5.73,12.75,3.2,3.2,0,0,0,6.2,0,43.48,43.48,0,0,1,5.73-12.75c2.18-3.37,4.24-6.56,4.24-10.85A12.79,12.79,0,0,0,14.25,2.15Z"/><circle class="cls-1" cx="14.35" cy="15.2" r="7.48"/><path class="cls-2" d="M14.25,3.65A11.32,11.32,0,0,0,2.68,15.23c0,3.84,1.85,6.71,4,10A44.66,44.66,0,0,1,12.6,38.45a1.7,1.7,0,0,0,3.3,0,44.66,44.66,0,0,1,5.92-13.18c2.15-3.33,4-6.2,4-10A11.32,11.32,0,0,0,14.25,3.65Zm0,18.17a6.57,6.57,0,1,1,6.57-6.57A6.57,6.57,0,0,1,14.25,21.82Z"/><circle cx="14.25" cy="15.25" r="3.22"/></svg>