<svg id="Layer_1" data-name="Layer 1" xmlns="http://www.w3.org/2000/svg" viewBox="0 0 64 64"><defs><style>.cls-1{fill:none;}.cls-2{fill:#1d1d1b;}</style></defs><title>Artboard 1</title><rect class="cls-1" width="64" height="64"/><path class="cls-2" d="M39,55.89,40,61h6l-2-6.65A23.28,23.28,0,0,1,39,55.89Z"/><path class="cls-2" d="M18,61h6l1-5.11a23.28,23.28,0,0,1-5-1.54Z"/><path class="cls-2" d="M51.32,13c-1.47-2.9-4.75-9.16-6-9.86C43.75,2.22,37.14,2,32,2s-11.75.22-13.33,1.11c-1.24.7-4.52,7-6,9.86A6.46,6.46,0,0,0,12,16.13l.9,23C13.41,52.19,24.59,54,32,54s18.59-1.81,19.1-14.88l.9-23A6.46,6.46,0,0,0,51.32,13ZM32,6.85A3.15,3.15,0,1,1,28.85,10,3.15,3.15,0,0,1,32,6.85Zm-9,36.3A3.15,3.15,0,1,1,26.15,40,3.15,3.15,0,0,1,23,43.15Zm18,0A3.15,3.15,0,1,1,44.15,40,3.15,3.15,0,0,1,41,43.15Zm5.6-25.86-3.38,11a1,1,0,0,1-1,.71H21.74a1,1,0,0,1-1-.71l-3.38-11a1,1,0,0,1,1-1.29h27.3A1,1,0,0,1,46.6,17.29Z"/></svg>