<svg id="Layer_1" data-name="Layer 1" xmlns="http://www.w3.org/2000/svg" viewBox="0 0 60.75 50.75"><title>Artboard 1</title><path d="M24.86,1.73a.46.46,0,0,0-.5.12L10,16.5H1.14c-.25,0-.57.18-.57.44V33.57c0,.25.32.94.57.94H9.73L24.37,48.92c.09.08.21,0,.33,0s.11-.07.16-.1a.53.53,0,0,0,.28-.48V2.16A.45.45,0,0,0,24.86,1.73Z"/><path d="M31.44,18.42a9.27,9.27,0,0,1-.1,13.3l2.55,2.67A13,13,0,0,0,34,15.78Z"/><path d="M42.16,7.62l-2.55,2.57a20.59,20.59,0,0,1-.32,29.53l2.49,2.63a24.22,24.22,0,0,0,.38-34.73Z"/><path d="M49.25.57,46.66,3.21a30.71,30.71,0,0,1,0,43.86l2.58,2.64a34.4,34.4,0,0,0,0-49.14Z"/></svg>