<svg id="Layer_1" data-name="Layer 1" xmlns="http://www.w3.org/2000/svg" viewBox="0 0 64 64"><defs><style>.cls-1{fill:none;}</style></defs><title>Artboard 1</title><rect class="cls-1" width="64" height="64"/><path d="M45,31a8,8,0,0,0-8,8v8c-.06,0-.26.07-.36-.25l-1-4.73H22A12,12,0,0,0,10,54v9h8V54a4,4,0,0,1,4-4H37V63H53V39A8,8,0,0,0,45,31Z"/><path d="M26.78,23.06A7.43,7.43,0,0,1,33,16.39a9.59,9.59,0,0,1-3.34,7.42s7.5.83,12.59-2.75C49,16.3,44.11,7.81,44.11,7.81a9.47,9.47,0,0,1-1.75,4.91c-1.58,1.84-4.25,3.17-5.08,1.84S40.72,11.81,40,6.64C39.53,2.89,34.69.72,34.69.72s1.25,4.75-.91,8.09-9.42,2.66-10.59,7.33S26.78,23.06,26.78,23.06Z"/><rect x="23" y="26" width="10" height="14"/><rect x="23" y="52" width="10" height="11"/></svg>