<svg id="Layer_1" data-name="Layer 1" xmlns="http://www.w3.org/2000/svg" viewBox="0 0 64 64"><defs><style>.cls-1{fill:none;}</style></defs><title>Artboard 1</title><rect class="cls-1" width="64" height="64"/><path d="M54.5,26.42a6.54,6.54,0,0,0,2.14-2.27,2.2,2.2,0,0,0-1.54-3.08,13.09,13.09,0,0,0-3.41.17c-1-3.49-2.65-9.15-3.63-10.18C46.74,9.69,42.12,9,32,9s-14.74.69-16.06,2.06c-1,1-2.67,6.69-3.63,10.18a13.09,13.09,0,0,0-3.41-.17,2.2,2.2,0,0,0-1.54,3.08A6.54,6.54,0,0,0,9.5,26.42C7.57,29,7,31.29,7,35.5V47a34.08,34.08,0,0,0,.47,5.6A1.81,1.81,0,0,0,9.27,54h6.46a1.81,1.81,0,0,0,1.8-1.4,27.23,27.23,0,0,0,.43-4l-6.13-1.22c-.32-.1-.27-.3-.25-.36H52.42c0,.06.07.26-.25.36L46,48.58a27.23,27.23,0,0,0,.43,4,1.81,1.81,0,0,0,1.8,1.4h6.46a1.81,1.81,0,0,0,1.8-1.4A34.08,34.08,0,0,0,57,47V35.5C57,31.29,56.43,29,54.5,26.42ZM18.9,13.74c.58-.29,4.89-.79,13.1-.79s12.52.5,13.1.79a69.59,69.59,0,0,1,3,10c-2.92.81-9.57,1.36-16.07,1.36s-13.15-.55-16.07-1.36A69.59,69.59,0,0,1,18.9,13.74Zm1.58,26-5.88-.47a3.28,3.28,0,0,1-2.87-2.8l-.24-1.68a1.56,1.56,0,0,1,2-1.64l4.77,1.33a3.58,3.58,0,0,1,2.15,2.22L21,39.11A.52.52,0,0,1,20.48,39.72ZM38,44H26V41H38Zm14.51-9.23-.24,1.68a3.28,3.28,0,0,1-2.87,2.8l-5.88.47a.51.51,0,0,1-.56-.61l.66-2.43a3.58,3.58,0,0,1,2.15-2.22l4.77-1.33A1.56,1.56,0,0,1,52.51,34.77Z"/></svg>