<svg id="Layer_1" data-name="Layer 1" xmlns="http://www.w3.org/2000/svg" viewBox="0 0 64 64"><defs><style>.cls-1{fill:none;}</style></defs><title>Artboard 1</title><rect class="cls-1" width="64" height="64"/><path d="M50.16,26H37.72L24.43,13.54A2,2,0,0,0,23.06,13h-1.4a.48.48,0,0,0-.45.65l3.94,10.5,7.44,1.5c.31.1.26.3.24.35H24.94c-4.43,0-8.2.22-11.3.53l-7.51-9A1.43,1.43,0,0,0,5,17H3.48a.47.47,0,0,0-.45.63l3.34,10a19.62,19.62,0,0,0-2.65.76,1,1,0,0,0-.28,1.8c4.49,2.87,15.1,5,21.55,5.6L14.11,49.22a.48.48,0,0,0,.37.78h3.21a2,2,0,0,0,1.09-.33L39.69,36H51.33c5.2,0,9.07-1.62,9.62-3.81C61.45,30.15,58.27,26,50.16,26Z"/></svg>